<?xml version="1.0" encoding="utf-8"?>
<!-- Generator: Adobe Illustrator 15.1.0, SVG Export Plug-In . SVG Version: 6.00 Build 0)  -->
<!DOCTYPE svg PUBLIC "-//W3C//DTD SVG 1.1//EN" "http://www.w3.org/Graphics/SVG/1.1/DTD/svg11.dtd">
<svg version="1.1" id="Layer_1" xmlns="http://www.w3.org/2000/svg" xmlns:xlink="http://www.w3.org/1999/xlink" x="0px" y="0px"
	 width="800px" height="450px" viewBox="0 0 800 450" enable-background="new 0 0 800 450" xml:space="preserve">
<g>
	<path fill="#001E39" d="M400,26.632c-24.247,0-43.906,19.659-43.906,43.907c0,19.401,12.579,35.856,30.027,41.66
		c2.195,0.402,2.996-0.954,2.996-2.112c0-1.045-0.04-4.507-0.062-8.173c-12.209,2.653-14.79-5.178-14.79-5.178
		c-1.999-5.069-4.875-6.42-4.875-6.42c-3.99-2.723,0.303-2.669,0.303-2.669c4.409,0.306,6.729,4.523,6.729,4.523
		c3.918,6.71,10.28,4.77,12.777,3.644c0.399-2.83,1.536-4.77,2.787-5.863c-9.746-1.109-19.999-4.878-19.999-21.701
		c0-4.797,1.712-8.709,4.515-11.784c-0.447-1.114-1.959-5.582,0.435-11.625c0,0,3.683-1.179,12.075,4.502
		c3.5-0.979,7.255-1.461,10.987-1.477c3.73,0.016,7.487,0.504,10.992,1.482c8.378-5.687,12.065-4.502,12.065-4.502
		c2.4,6.048,0.89,10.51,0.439,11.62c2.813,3.074,4.513,6.986,4.513,11.784c0,16.866-10.27,20.581-20.051,21.669
		c1.581,1.361,2.98,4.03,2.98,8.125c0,5.869-0.06,10.601-0.06,12.048c0,1.168,0.799,2.535,3.023,2.106
		c17.435-5.815,30.003-22.27,30.003-41.66C443.906,46.292,424.247,26.632,400,26.632z"/>
</g>
<g>
	<line fill="#FFFFFF" stroke="#001E39" stroke-width="8" stroke-miterlimit="10" x1="400" y1="200" x2="400" y2="236"/>
	<line fill="#FFFFFF" stroke="#001E39" stroke-width="8" stroke-miterlimit="10" x1="475" y1="240" x2="475" y2="276"/>
	<line fill="#FFFFFF" stroke="#001E39" stroke-width="8" stroke-miterlimit="10" x1="325" y1="240" x2="325" y2="276"/>
	<polyline fill="none" stroke="#001E39" stroke-width="8" stroke-miterlimit="10" points="175,276 175,240 625,240 625,276 	"/>
</g>
<rect x="132" y="289" fill="none" stroke="#001E39" stroke-width="8" stroke-miterlimit="10" width="84" height="102"/>
<path fill="none" stroke="#000000" stroke-width="8" stroke-miterlimit="10" d="M216,320l-31-31L216,320z"/>
<g>
	<path fill="#001E39" d="M163.518,361c0,0.4-0.24,0.721-0.48,1.041c-1.24,1.76-2.839,3.799-5.199,3.799
		c-4.759,0-6.559-4.279-6.559-8.119c0-1.719,0.08-3.398,0.08-5.119c0-4.439-0.08-12.997,6.039-13.397h0.24
		c2.64,0,5.919,2.521,5.919,5.359c0,0.36-2.52,0.96-2.919,0.96c-1.479,0-0.96-2.56-2.799-2.56c-2.16,0-2.56,3.759-2.6,5.399
		c-0.08,2.999-0.12,5.998-0.12,8.998c0,1.479,0.24,4.719,2.359,4.719c1.64,0,1.24-2.399,3.12-2.399
		C161.398,359.681,163.518,359.921,163.518,361z"/>
	<path fill="#001E39" d="M179.718,357.682c0.08,0.439,0.12,0.879,0.12,1.319c0,4.679-3.08,6.919-6.759,6.919
		c-3,0-6.079-2.56-6.079-5.719c0-1.561,1.12-1.641,2.359-1.641c0.6,0,1.2,0.16,1.76,0.48c0,1.279,0.72,3,2.24,3
		c1.4,0,2.399-1.08,2.399-2.439c0-2.561-3.679-5.92-5.519-7.439l0.04,0.04c-2.399-1.96-3.52-3.399-3.52-6.599
		c0-3.76,2.64-6.52,6.479-6.52c1.8,0,4.119,0.92,4.919,2.641c0.4,0.879,1.16,2.199,1.16,3.199c0,1.199-1.8,1.399-2.72,1.399
		c-2.56,0-0.64-3.399-4.039-3.399c-0.44,0-0.96,0.439-1.24,0.76h0.04c-0.56,0.64-0.919,1.479-0.919,2.319c0,0.2,0.04,0.4,0.08,0.601
		c0.48,2.6,8.079,6.398,9.199,11.117V357.682z"/>
	<path fill="#001E39" d="M195.638,357.682c0.08,0.439,0.12,0.879,0.12,1.319c0,4.679-3.08,6.919-6.759,6.919
		c-3,0-6.079-2.56-6.079-5.719c0-1.561,1.12-1.641,2.359-1.641c0.6,0,1.2,0.16,1.76,0.48c0,1.279,0.72,3,2.24,3
		c1.4,0,2.399-1.08,2.399-2.439c0-2.561-3.679-5.92-5.519-7.439l0.04,0.04c-2.399-1.96-3.52-3.399-3.52-6.599
		c0-3.76,2.64-6.52,6.479-6.52c1.8,0,4.119,0.92,4.919,2.641c0.4,0.879,1.16,2.199,1.16,3.199c0,1.199-1.8,1.399-2.72,1.399
		c-2.56,0-0.64-3.399-4.039-3.399c-0.44,0-0.96,0.439-1.24,0.76h0.04c-0.56,0.64-0.919,1.479-0.919,2.319c0,0.2,0.04,0.4,0.08,0.601
		c0.48,2.6,8.079,6.398,9.199,11.117V357.682z"/>
</g>
<rect x="282" y="289" fill="none" stroke="#001E39" stroke-width="8" stroke-miterlimit="10" width="84" height="102"/>
<line fill="none" stroke="#000000" stroke-width="8" stroke-miterlimit="10" x1="335" y1="289" x2="366" y2="320"/>
<g>
	<path fill="#001E39" d="M303.54,352.441c0.12-3.479,0.64-6.878,0.64-10.317c0-1.08,0.04-1.92,1.32-1.92s2.32,0.56,2.32,1.96
		c0,4.079-0.32,8.158-0.52,12.238c-0.16,3.719-0.24,7.479-0.52,11.197c-0.72,0-1.4,0.24-2.16,0.24c-1.4,0-1.36-1.8-1.36-2.959
		c0-2.28,0.08-4.64,0.2-6.92c-1.36,0-2.68-0.159-4-0.159h-0.28c-0.04,3.039,0.04,9.478-1,9.798c-0.32,0.12-1.12,0.16-1.439,0.16
		c-0.4,0-1.48-0.08-1.48-0.68c0-1.48,0.24-3.24,0.24-4.999v-2.88c0-4.719,0.32-9.398,0.32-14.078c0-0.399-0.08-0.799-0.08-1.199
		c0-1.76,0.92-1.8,2.28-1.8c1.399,0,1.479,0.32,1.479,1.521c0,2.238-0.16,4.438-0.16,6.719v3.199v0.72
		c1.32,0,2.64,0.159,3.959,0.159H303.54z"/>
	<path fill="#001E39" d="M313.02,342.084c-0.28,0-0.6,0.08-0.96,0.08c-0.52,0-1-0.24-1.36-0.641c0.04-0.16,0.04-0.319,0.04-0.479
		c0-0.28-0.04-0.6-0.04-0.92c0-0.56,0.12-1.319,0.76-1.52h-0.04c0.28-0.08,0.6-0.16,0.88-0.16c0.88,0,1.72,0.16,2.56,0.16
		c1.32,0,2.68-0.04,4-0.04c0.72,0,1.4-0.24,2.08-0.24c0.72,0,0.76,0.92,0.76,1.439c0,2.801-0.68,2.2-3.08,2.561
		c-0.28,5.119-0.44,10.318-0.44,15.438c0,0.799,0.08,1.6,0.08,2.398c0,1.881-0.12,3.721-0.2,5.6c-0.44,0.04-0.84,0.08-1.28,0.08
		c-0.8,0-1.6-0.16-2.4-0.16c-0.08-0.479-0.12-0.959-0.12-1.439c0-1.08,0.16-2.199,0.16-3.279c0-0.52-0.04-1.08-0.04-1.6
		c0.16-2.68,0.2-4.359,0.2-5.52c0-3.76-0.24-6.199-0.24-9.479c0-0.76,0-1.52,0.08-2.279H313.02z"/>
	<path fill="#001E39" d="M338.458,340.204c0,7.599,0.36,15.237,0.36,22.916c0,0.8-0.04,1.64-0.2,2.399
		c-0.6,0.24-1.28,0.32-1.919,0.32c-1.64,0-1.92-0.68-1.92-1.68c0-0.48,0.08-1.04,0.08-1.64c0-2.919-0.08-5.8-0.12-8.719
		c-0.72,2.12-1.08,5.079-2.72,5.079c-0.439,0-0.8-0.08-1.2-0.08h-0.28c-0.92-1.56-1.4-3.559-2.08-5.238
		c0.12,2.239,0.16,4.398,0.16,6.639c0,1.439,0,4.039-0.4,5.359c-0.4,0.159-0.88,0.239-1.32,0.239c-0.8,0-1.6-0.2-2.319-0.6
		c-0.08-2.159-0.04-1.12-0.04-7.039c0-6.438,0.08-17.638,0.8-18.317c0.56-0.08,1.04-0.359,1.6-0.359c1.6,0,3.32,7.679,4.6,11.198
		l2.719-7.959c0.24-0.76,0.48-1.72,0.88-2.399l0.24-0.16c0,0,1.959-0.32,2.08-0.32C337.818,339.844,338.178,340.004,338.458,340.204
		z"/>
	<path fill="#001E39" d="M351.658,364.48v0.16c-0.12,1.239-2.8,1.079-5.759,1.079c-1.76,0-3.279,0.36-3.599-1.12h0.04
		c-0.52-1.559-0.56-10.277-0.56-14.917c0-3.52,0.32-4.079,0.32-6.199c0-0.479-0.04-0.96-0.04-1.52c0-0.92,0.2-1.68,1.28-1.68
		c1.32,0,2.439,0.2,2.439,2.239c0,0.92-0.2,1.88-0.2,2.8c0,1.36,0.12,2.68,0.12,4.04c0,0.68,0,1.359-0.04,2.039v-0.04
		c-0.04,1.88-0.08,3.72-0.08,5.599c0,1.6-0.04,3.72,0.2,5.08c1.36,0.399,3.68,0.16,5.519,0.639
		C351.498,363.24,351.658,363.881,351.658,364.48z"/>
</g>
<rect x="432" y="289" fill="none" stroke="#001E39" stroke-width="8" stroke-miterlimit="10" width="84" height="102"/>
<line fill="none" stroke="#000000" stroke-width="8" stroke-miterlimit="10" x1="485" y1="289" x2="516" y2="320"/>
<g>
	<path fill="#001E39" d="M453.539,352.441c0.12-3.479,0.641-6.878,0.641-10.317c0-1.08,0.039-1.92,1.319-1.92s2.319,0.56,2.319,1.96
		c0,4.079-0.32,8.158-0.52,12.238c-0.16,3.719-0.24,7.479-0.52,11.197c-0.721,0-1.4,0.24-2.16,0.24c-1.4,0-1.359-1.8-1.359-2.959
		c0-2.28,0.08-4.64,0.199-6.92c-1.359,0-2.68-0.159-3.999-0.159h-0.28c-0.039,3.039,0.041,9.478-1,9.798
		c-0.319,0.12-1.119,0.16-1.439,0.16c-0.4,0-1.479-0.08-1.479-0.68c0-1.48,0.239-3.24,0.239-4.999v-2.88
		c0-4.719,0.32-9.398,0.32-14.078c0-0.399-0.08-0.799-0.08-1.199c0-1.76,0.92-1.8,2.28-1.8c1.399,0,1.479,0.32,1.479,1.521
		c0,2.238-0.16,4.438-0.16,6.719v3.199v0.72c1.32,0,2.64,0.159,3.959,0.159H453.539z"/>
	<path fill="#001E39" d="M463.02,342.084c-0.279,0-0.6,0.08-0.959,0.08c-0.521,0-1-0.24-1.36-0.641c0.04-0.16,0.04-0.319,0.04-0.479
		c0-0.28-0.04-0.6-0.04-0.92c0-0.56,0.12-1.319,0.76-1.52h-0.04c0.28-0.08,0.6-0.16,0.88-0.16c0.88,0,1.72,0.16,2.56,0.16
		c1.32,0,2.68-0.04,4-0.04c0.719,0,1.399-0.24,2.079-0.24c0.72,0,0.76,0.92,0.76,1.439c0,2.801-0.68,2.2-3.079,2.561
		c-0.28,5.119-0.44,10.318-0.44,15.438c0,0.799,0.08,1.6,0.08,2.398c0,1.881-0.12,3.721-0.2,5.6c-0.439,0.04-0.84,0.08-1.279,0.08
		c-0.8,0-1.6-0.16-2.4-0.16c-0.079-0.479-0.119-0.959-0.119-1.439c0-1.08,0.16-2.199,0.16-3.279c0-0.52-0.041-1.08-0.041-1.6
		c0.16-2.68,0.201-4.359,0.201-5.52c0-3.76-0.24-6.199-0.24-9.479c0-0.76,0-1.52,0.08-2.279H463.02z"/>
	<path fill="#001E39" d="M488.457,340.204c0,7.599,0.361,15.237,0.361,22.916c0,0.8-0.041,1.64-0.201,2.399
		c-0.6,0.24-1.279,0.32-1.919,0.32c-1.64,0-1.92-0.68-1.92-1.68c0-0.48,0.08-1.04,0.08-1.64c0-2.919-0.08-5.8-0.12-8.719
		c-0.72,2.12-1.08,5.079-2.72,5.079c-0.439,0-0.8-0.08-1.2-0.08h-0.279c-0.92-1.56-1.4-3.559-2.08-5.238
		c0.121,2.239,0.16,4.398,0.16,6.639c0,1.439,0,4.039-0.4,5.359c-0.399,0.159-0.879,0.239-1.319,0.239c-0.8,0-1.6-0.2-2.319-0.6
		c-0.08-2.159-0.04-1.12-0.04-7.039c0-6.438,0.08-17.638,0.8-18.317c0.561-0.08,1.04-0.359,1.6-0.359c1.6,0,3.32,7.679,4.6,11.198
		l2.719-7.959c0.24-0.76,0.48-1.72,0.881-2.399l0.24-0.16c0,0,1.959-0.32,2.079-0.32
		C487.818,339.844,488.178,340.004,488.457,340.204z"/>
	<path fill="#001E39" d="M501.658,364.48v0.16c-0.12,1.239-2.8,1.079-5.76,1.079c-1.76,0-3.279,0.36-3.599-1.12h0.04
		c-0.52-1.559-0.561-10.277-0.561-14.917c0-3.52,0.32-4.079,0.32-6.199c0-0.479-0.04-0.96-0.04-1.52c0-0.92,0.2-1.68,1.28-1.68
		c1.319,0,2.439,0.2,2.439,2.239c0,0.92-0.2,1.88-0.2,2.8c0,1.36,0.12,2.68,0.12,4.04c0,0.68,0,1.359-0.04,2.039v-0.04
		c-0.04,1.88-0.08,3.72-0.08,5.599c0,1.6-0.04,3.72,0.2,5.08c1.359,0.399,3.68,0.16,5.519,0.639
		C501.498,363.24,501.658,363.881,501.658,364.48z"/>
</g>
<rect x="582" y="289" fill="none" stroke="#001E39" stroke-width="8" stroke-miterlimit="10" width="84" height="102"/>
<line fill="none" stroke="#000000" stroke-width="8" stroke-miterlimit="10" x1="635" y1="289" x2="666" y2="320"/>
<g>
	<path fill="#001E39" d="M603.539,352.441c0.12-3.479,0.641-6.878,0.641-10.317c0-1.08,0.039-1.92,1.319-1.92s2.319,0.56,2.319,1.96
		c0,4.079-0.32,8.158-0.52,12.238c-0.16,3.719-0.24,7.479-0.52,11.197c-0.721,0-1.4,0.24-2.16,0.24c-1.4,0-1.359-1.8-1.359-2.959
		c0-2.28,0.08-4.64,0.199-6.92c-1.359,0-2.68-0.159-3.999-0.159h-0.28c-0.039,3.039,0.041,9.478-1,9.798
		c-0.319,0.12-1.119,0.16-1.439,0.16c-0.4,0-1.479-0.08-1.479-0.68c0-1.48,0.239-3.24,0.239-4.999v-2.88
		c0-4.719,0.32-9.398,0.32-14.078c0-0.399-0.08-0.799-0.08-1.199c0-1.76,0.92-1.8,2.28-1.8c1.399,0,1.479,0.32,1.479,1.521
		c0,2.238-0.16,4.438-0.16,6.719v3.199v0.72c1.32,0,2.64,0.159,3.959,0.159H603.539z"/>
	<path fill="#001E39" d="M613.02,342.084c-0.279,0-0.6,0.08-0.959,0.08c-0.521,0-1-0.24-1.36-0.641c0.04-0.16,0.04-0.319,0.04-0.479
		c0-0.28-0.04-0.6-0.04-0.92c0-0.56,0.12-1.319,0.76-1.52h-0.04c0.28-0.08,0.6-0.16,0.88-0.16c0.88,0,1.72,0.16,2.56,0.16
		c1.32,0,2.68-0.04,4-0.04c0.719,0,1.399-0.24,2.079-0.24c0.72,0,0.76,0.92,0.76,1.439c0,2.801-0.68,2.2-3.079,2.561
		c-0.28,5.119-0.44,10.318-0.44,15.438c0,0.799,0.08,1.6,0.08,2.398c0,1.881-0.12,3.721-0.2,5.6c-0.439,0.04-0.84,0.08-1.279,0.08
		c-0.8,0-1.6-0.16-2.4-0.16c-0.079-0.479-0.119-0.959-0.119-1.439c0-1.08,0.16-2.199,0.16-3.279c0-0.52-0.041-1.08-0.041-1.6
		c0.16-2.68,0.201-4.359,0.201-5.52c0-3.76-0.24-6.199-0.24-9.479c0-0.76,0-1.52,0.08-2.279H613.02z"/>
	<path fill="#001E39" d="M638.457,340.204c0,7.599,0.361,15.237,0.361,22.916c0,0.8-0.041,1.64-0.201,2.399
		c-0.6,0.24-1.279,0.32-1.919,0.32c-1.64,0-1.92-0.68-1.92-1.68c0-0.48,0.08-1.04,0.08-1.64c0-2.919-0.08-5.8-0.12-8.719
		c-0.72,2.12-1.08,5.079-2.72,5.079c-0.439,0-0.8-0.08-1.2-0.08h-0.279c-0.92-1.56-1.4-3.559-2.08-5.238
		c0.121,2.239,0.16,4.398,0.16,6.639c0,1.439,0,4.039-0.4,5.359c-0.399,0.159-0.879,0.239-1.319,0.239c-0.8,0-1.6-0.2-2.319-0.6
		c-0.08-2.159-0.04-1.12-0.04-7.039c0-6.438,0.08-17.638,0.8-18.317c0.561-0.08,1.04-0.359,1.6-0.359c1.6,0,3.32,7.679,4.6,11.198
		l2.719-7.959c0.24-0.76,0.48-1.72,0.881-2.399l0.24-0.16c0,0,1.959-0.32,2.079-0.32
		C637.818,339.844,638.178,340.004,638.457,340.204z"/>
	<path fill="#001E39" d="M651.658,364.48v0.16c-0.12,1.239-2.8,1.079-5.76,1.079c-1.76,0-3.279,0.36-3.599-1.12h0.04
		c-0.52-1.559-0.561-10.277-0.561-14.917c0-3.52,0.32-4.079,0.32-6.199c0-0.479-0.04-0.96-0.04-1.52c0-0.92,0.2-1.68,1.28-1.68
		c1.319,0,2.439,0.2,2.439,2.239c0,0.92-0.2,1.88-0.2,2.8c0,1.36,0.12,2.68,0.12,4.04c0,0.68,0,1.359-0.04,2.039v-0.04
		c-0.04,1.88-0.08,3.72-0.08,5.599c0,1.6-0.04,3.72,0.2,5.08c1.359,0.399,3.68,0.16,5.519,0.639
		C651.498,363.24,651.658,363.881,651.658,364.48z"/>
</g>
<rect x="132.25" y="403" fill="none" width="83.75" height="29"/>
<text transform="matrix(1 0 0 1 148.1353 418.7773)" fill="#001E39" font-family="'Karla-Bold'" font-size="23">style</text>
<rect x="282.25" y="403" fill="none" width="83.75" height="29"/>
<text transform="matrix(1 0 0 1 293.6621 418.7773)" fill="#001E39" font-family="'Karla-Bold'" font-size="23">index</text>
<rect x="428.25" y="403" fill="none" width="91.75" height="29"/>
<text transform="matrix(1 0 0 1 428.5508 418.7773)" fill="#001E39" font-family="'Karla-Bold'" font-size="23">pictures</text>
<rect x="578.25" y="403" fill="none" width="91.75" height="29"/>
<text transform="matrix(1 0 0 1 588.6592 418.7773)" fill="#001E39" font-family="'Karla-Bold'" font-size="23">videos</text>
<polygon fill="#FC7800" stroke="#001E39" stroke-width="8" stroke-miterlimit="10" points="216,289 185,289 216,320 "/>
<polygon fill="#1AAD00" stroke="#001E39" stroke-width="8" stroke-miterlimit="10" points="366,289 335,289 366,320 "/>
<polygon fill="#1AAD00" stroke="#001E39" stroke-width="8" stroke-miterlimit="10" points="516,289 485,289 516,320 "/>
<polygon fill="#1AAD00" stroke="#001E39" stroke-width="8" stroke-miterlimit="10" points="666,289 635,289 666,320 "/>
<g id="g3018">
	<path id="path3024" fill="#001E39" d="M331.277,149.646h-18.789
		c-0.484,0-0.877,0.393-0.877,0.879v9.187c0,0.483,0.393,0.878,0.877,0.878h7.33v11.414c0,0-1.646,0.561-6.197,0.561
		c-5.367,0-12.867-1.961-12.867-18.451c0-16.494,7.811-18.665,15.141-18.665c6.346,0,9.08,1.118,10.82,1.656
		c0.545,0.168,1.051-0.376,1.051-0.862l2.098-8.875c0-0.228-0.078-0.5-0.336-0.687c-0.707-0.504-5.018-2.915-15.906-2.915
		c-12.543,0-25.408,5.336-25.408,30.99s14.73,29.478,27.145,29.478c10.277,0,16.514-4.393,16.514-4.393
		c0.256-0.143,0.285-0.502,0.285-0.666v-28.65C332.156,150.04,331.762,149.646,331.277,149.646"/>
	<path id="path3026" fill="#001E39" d="M428.109,126.84c0-0.489-0.389-0.884-0.873-0.884h-10.58
		c-0.482,0-0.875,0.395-0.875,0.884c0,0.002,0.002,20.445,0.002,20.445h-16.49V126.84c0-0.489-0.389-0.884-0.873-0.884h-10.578
		c-0.482,0-0.873,0.395-0.873,0.884v55.359c0,0.488,0.391,0.887,0.873,0.887h10.578c0.484,0,0.873-0.398,0.873-0.887v-23.68h16.49
		c0,0-0.029,23.678-0.029,23.68c0,0.488,0.395,0.887,0.877,0.887h10.605c0.484,0,0.871-0.398,0.873-0.887V126.84"/>
	<path id="path3028" fill="#001E39" d="M351.24,134.104c0-3.81-3.053-6.888-6.82-6.888
		c-3.766,0-6.82,3.078-6.82,6.888c0,3.806,3.055,6.892,6.82,6.892C348.188,140.996,351.24,137.91,351.24,134.104"/>
	<path id="path3030" fill="#001E39" d="M350.484,170.521c0-1.418,0-25.554,0-25.554
		c0-0.485-0.391-0.882-0.875-0.882h-10.545c-0.484,0-0.918,0.499-0.918,0.984c0,0,0,30.751,0,36.612c0,1.076,0.67,1.395,1.539,1.395
		c0,0,4.5,0,9.502,0c1.041,0,1.297-0.512,1.297-1.412C350.484,179.701,350.484,172.014,350.484,170.521"/>
	<path id="path3032" fill="#001E39" d="M468.316,144.168h-10.5c-0.48,0-0.873,0.397-0.873,0.885
		v27.146c0,0-2.666,1.951-6.453,1.951c-3.783,0-4.789-1.719-4.789-5.426c0-3.711,0-23.671,0-23.671c0-0.488-0.391-0.885-0.873-0.885
		h-10.654c-0.482,0-0.875,0.397-0.875,0.885c0,0,0,14.456,0,25.464c0,11.01,6.135,13.703,14.576,13.703
		c6.926,0,12.508-3.826,12.508-3.826s0.266,2.016,0.387,2.256c0.121,0.238,0.434,0.479,0.771,0.479l6.779-0.029
		c0.48,0,0.875-0.396,0.875-0.885l-0.004-37.161C469.191,144.566,468.799,144.168,468.316,144.168"/>
	<path id="path3034" fill="#001E39" d="M492.869,174.115c-3.643-0.109-6.113-1.762-6.113-1.762
		v-17.532c0,0,2.438-1.494,5.428-1.76c3.781-0.339,7.422,0.804,7.422,9.821C499.605,172.393,497.963,174.27,492.869,174.115z
		 M497.01,142.925c-5.963,0-10.02,2.661-10.02,2.661V126.84c0-0.489-0.391-0.884-0.873-0.884h-10.609
		c-0.482,0-0.873,0.395-0.873,0.884v55.359c0,0.488,0.391,0.887,0.875,0.887c0,0,7.359,0,7.361,0c0.332,0,0.582-0.172,0.768-0.471
		c0.184-0.297,0.447-2.553,0.447-2.553s4.338,4.111,12.551,4.111c9.641,0,15.17-4.891,15.17-21.954
		C511.807,145.155,502.977,142.925,497.01,142.925"/>
	<path id="path3036" fill="#001E39" d="M380.891,144.081h-7.936c0,0-0.012-10.481-0.012-10.484
		c0-0.397-0.205-0.596-0.664-0.596h-10.814c-0.42,0-0.646,0.185-0.646,0.589v10.834c0,0-5.42,1.308-5.785,1.414
		s-0.633,0.443-0.633,0.844v6.809c0,0.489,0.391,0.884,0.875,0.884h5.543c0,0,0,7.12,0,16.379c0,12.164,8.533,13.359,14.293,13.359
		c2.631,0,5.777-0.844,6.297-1.037c0.314-0.115,0.496-0.439,0.496-0.793l0.01-7.49c0-0.488-0.412-0.883-0.877-0.883
		c-0.463,0-1.645,0.188-2.863,0.188c-3.898,0-5.219-1.812-5.219-4.158c0-2.344,0-15.564,0-15.564h7.936
		c0.484,0,0.875-0.396,0.875-0.884v-8.528C381.766,144.474,381.375,144.081,380.891,144.081"/>
</g>
</svg>
