<?xml version="1.0" encoding="utf-8"?>
<!-- Generator: Adobe Illustrator 15.1.0, SVG Export Plug-In . SVG Version: 6.00 Build 0)  -->
<!DOCTYPE svg PUBLIC "-//W3C//DTD SVG 1.1//EN" "http://www.w3.org/Graphics/SVG/1.1/DTD/svg11.dtd">
<svg version="1.1" id="Layer_1" xmlns="http://www.w3.org/2000/svg" xmlns:xlink="http://www.w3.org/1999/xlink" x="0px" y="0px"
	 width="800px" height="450px" viewBox="0 0 800 450" enable-background="new 0 0 800 450" xml:space="preserve">
<rect x="141" y="22" fill="none" stroke="#001E39" stroke-width="8" stroke-miterlimit="10" width="518" height="406"/>
<rect x="241" y="40" fill="none" stroke="#001E39" stroke-width="8" stroke-miterlimit="10" width="321" height="79"/>
<rect x="241" y="137" fill="none" stroke="#001E39" stroke-width="8" stroke-miterlimit="10" width="321" height="39.5"/>
<rect x="241" y="195" fill="none" stroke="#001E39" stroke-width="8" stroke-miterlimit="10" width="321" height="233"/>
<g>
	<path fill="#001E39" d="M334.877,63.248c0,9.5,0.45,19.051,0.45,28.651c0,1-0.05,2.05-0.25,3c-0.75,0.3-1.6,0.4-2.4,0.4
		c-2.05,0-2.4-0.85-2.4-2.1c0-0.6,0.1-1.3,0.1-2.05c0-3.65-0.1-7.25-0.15-10.9c-0.9,2.65-1.35,6.35-3.4,6.35c-0.55,0-1-0.1-1.5-0.1
		h-0.35c-1.15-1.95-1.75-4.45-2.6-6.55c0.15,2.8,0.2,5.5,0.2,8.301c0,1.8,0,5.05-0.5,6.7c-0.5,0.2-1.1,0.3-1.65,0.3
		c-1,0-2-0.25-2.9-0.75c-0.1-2.7-0.05-1.4-0.05-8.801c0-8.05,0.1-22.051,1-22.901c0.7-0.1,1.3-0.45,2-0.45
		c2,0,4.15,9.601,5.75,14.001l3.4-9.951c0.3-0.95,0.6-2.15,1.1-3l0.3-0.2c0,0,2.45-0.4,2.6-0.4
		C334.078,62.798,334.528,62.998,334.877,63.248z"/>
	<path fill="#001E39" d="M342.426,99.75c-0.6-0.4-0.85-0.6-1.05-1.35c0.2-0.4,0.35-0.8,0.55-1.1h-0.05l0.1-0.1l0.1-0.15
		c0.35-0.65,1.05-1.7,1.85-1.9l0.8,0.5h-0.05c0.35,0.25,0.7,0.55,1.15,0.55c0.95,0,1.25-1,1.4-1.75c-0.45,0.15-0.95,0.2-1.4,0.2
		c-6.25,0-6.65-8.25-6.65-13.751v-2.45c0-1.8-0.2-3.7-0.2-5.5c0-0.6,0.1-1.55,0.45-2c0.55,0.05,1.1,0.1,1.7,0.1
		c0.55,0,1.15-0.05,1.7-0.1c0.4,1,0.55,2,0.55,3c0,0.9-0.05,1.8-0.05,2.7c0,3.8,0.2,12.101,2.35,12.101c2,0,2.05-3.65,2.05-5.8
		c0-2.9-0.15-5.851-0.25-8.75v-0.2c0-0.2-0.05-0.45-0.05-0.65c0-0.15,0.05-0.4,0.05-0.55c-0.05-0.2-0.05-0.45-0.05-0.65
		c0-1.15,1.5-1.3,2.45-1.3c0.65,0,1.25,0.1,1.95,0.15c0.35,1.55,0.5,3.2,0.5,4.8c0,1.45-0.05,2.85-0.05,4.3c0,1.5,0.05,3,0.05,4.55
		c0,3.15,1.1,16.201-7.201,16.201c-0.6,0-2.3-0.8-2.8-1.15L342.426,99.75z"/>
	<path fill="#001E39" d="M385.227,94.95c-0.5-0.8-2.95-14.151-3.2-15.801c-0.9,4.85-2,9.701-2.7,14.551
		c-0.15,0.85-0.4,1.15-1.2,1.35l0.05-0.05c-0.45,0.15-0.9,0.15-1.35,0.15c-0.35,0-0.9,0-1.3-0.15c-0.95-0.3-4.7-14.801-5.101-16.851
		c-0.65-3.25-1.1-6.65-1.65-9.951c-0.2-1.35-0.75-3.65-0.75-5c0-0.4,2.6-0.4,3-0.4c0.9,0,1.8,0,2.75,0.1c0.2,1.6,0.1,3.2,0.25,4.75
		c0.1,1.2,0.45,2.4,0.7,3.601l1.4,7.25c0.25,1.3,0.45,2.65,0.55,4c0.5-2.05,2.3-15.101,2.95-15.701c0.4-0.35,1.1-0.4,1.55-0.4
		c0.7,0,1.85,0.15,2.4,0.6c0.8,0.65,3.5,15.651,3.6,17.551c0.65-3.7,0.7-7.901,1.2-11.801c0.15-1.25,1.3-10.701,2.15-11.151
		c0.3,0.05,0.55,0.1,0.85,0.1c0.1,0,0.25-0.05,0.35-0.05c0.7,0,2.55,0.65,3.25,0.9c-0.45,4.3-1.05,8.701-1.8,12.951
		c-0.3,1.55-3.2,18.501-3.4,18.851c-0.55,0.8-1.85,0.95-2.75,0.95C386.426,95.3,385.727,95.2,385.227,94.95z"/>
	<path fill="#001E39" d="M408.826,88.899c0,3.75-3.4,6.4-7,6.4c-6.151,0-6.651-8.451-6.651-12.951c0-4.65,1.7-11.001,7.401-11.001
		c5.949,0,5.75,7.201,5.75,11.701c0,1.45-4.851,1.65-8.451,1.65v0.95c0,1.4,0.1,4.9,2.1,4.9c1.851,0,2-2.55,2.3-3.9
		C405.525,86.649,408.826,87.199,408.826,88.899z M400.025,79.949c0.5,0.1,1,0.1,1.5,0.1c0.95,0,1.801-0.1,2.701-0.25
		c0-0.9-0.501-3.9-1.751-3.9C400.625,75.898,400.176,78.549,400.025,79.949z"/>
	<path fill="#001E39" d="M415.076,95.25c-1.5,0-2-0.25-2-1.7c0-4.95-0.451-9.951-0.451-14.951c0-3.45,0.5-7,0.5-10.4
		c0-0.7-0.1-1.35-0.1-2.05c0-1.9,0.6-2.5,2.45-2.5c1.601,0,2.101,0.9,2.101,2.45c0,0.55-0.051,1.2-0.15,1.75v-0.05
		c-0.1,0.5-0.1,0.95-0.1,1.45v1.4c0,0.35,0,0.7-0.051,1.05c0.551-0.15,1.101-0.2,1.65-0.2c4.95,0,6.601,4.15,6.601,8.5
		c0,1.85-0.2,3.8-0.45,5.65c-0.55,3.65-0.3,8.7-6.4,8.7c-0.4,0-0.75-0.05-1.1-0.1C417.576,95.3,415.875,95.25,415.076,95.25z
		 M417.476,88.949v-0.05c0.3,0.6,0.95,0.8,1.55,0.8c2.351,0,2-8,2-11.5c0-1.3-0.5-2.5-2-2.5c-1.3,0-2.149,1-2.149,2.25
		C416.876,79.099,416.926,88.1,417.476,88.949z"/>
	<path fill="#001E39" d="M442.525,88.6c0,1.3-0.4,3.05-1.2,4.15V92.7c-1.15,1.75-3.25,2.65-5.3,2.65c-1.9,0-3.65-0.65-5.101-1.8
		v0.05c-0.55-0.35-1.7-1.7-1.7-2.35c0.35-0.8,2.4-2.3,3.301-2.3c0.699,0,2.199,1.95,3.75,1.95c0.75,0,1.2-1.35,1.2-1.95
		c0-2-2.501-4.1-3.95-5.25c-2.451-1.85-3.951-2.95-3.951-6.351c0-3.5,3.051-6.35,6.451-6.35c0.5,0,1,0.05,1.5,0.25v-0.05
		c1.5,0.35,4.25,1.75,4.25,3.15c-0.5,0.75-2.5,2.45-3.351,2.45c-0.35,0-1.149-1.15-2.399-1.15c-1,0-1.451,0.8-1.451,1.7
		c0,1.65,1.65,2.85,2.801,3.75h-0.05C439.726,82.849,442.525,85.399,442.525,88.6z"/>
	<path fill="#001E39" d="M448.974,65.448c1.251,0,2.15,0.9,2.15,1.95c0,0.8-0.649,2.45-2.5,2.45c-2,0-2.3-0.75-2.3-1.95
		c0-0.65,0.3-1.35,1.05-2C447.924,65.598,448.524,65.448,448.974,65.448z M449.574,71.348c1.65,0,2,0.3,2,1.9
		c0,5.15-0.65,10.301-0.65,15.451c0,1.7,0.25,3.4,0.25,5.05c0,1.2-0.699,1.4-1.75,1.4c-0.6,0-1.25,0-1.85-0.2h0.05
		c-0.1,0-0.25-0.05-0.35-0.05c-0.15,0-0.301,0.05-0.45,0.05c-0.2-0.75-0.3-1.5-0.3-2.2c0-4.65,0.149-9.3,0.149-13.951
		c0-1.9-0.149-3.8-0.149-5.65c0-1.8,1.6-1.65,1.75-1.7L449.574,71.348z"/>
	<path fill="#001E39" d="M462.074,72.249c1.25,0.1,2.45,0,3.65,0.3l-0.051,0.5c0.15,0.5,0.25,1,0.25,1.55c0,1.55-0.899,1.6-2.1,1.6
		h-1.851c-0.05,0.9-0.05,1.85-0.05,2.75c0,3.75-0.149,11.751,0.95,11.951c0.45-0.15,0.45-0.5,1.1-0.5c0.4,0,2.751,1.85,2.751,2.2
		c0,1.75-2.25,2.7-3.751,2.7c-0.8,0-1.8-0.45-2.55-0.8l-0.2-0.05c-2.3-1.3-2.4-4.7-2.4-7.05c0-3.5,0-7.301-0.449-11.001
		c-0.2-0.05-0.45-0.05-0.65-0.05c-0.3,0-0.6,0.05-0.9,0.05c-0.6,0-0.899-1.4-0.899-2.6c0-2.2,1.2-1.6,2.2-1.6
		c0-1.2-0.051-2.3-0.051-3.45c0-2.15,1.4-2,2.751-2c0.449,0,0.899,0.05,1.899,0.6C461.874,68.948,461.974,70.598,462.074,72.249z"/>
	<path fill="#001E39" d="M481.925,88.899c0,3.75-3.4,6.4-7,6.4c-6.15,0-6.651-8.451-6.651-12.951c0-4.65,1.7-11.001,7.401-11.001
		c5.95,0,5.75,7.201,5.75,11.701c0,1.45-4.851,1.65-8.45,1.65v0.95c0,1.4,0.1,4.9,2.1,4.9c1.851,0,2-2.55,2.3-3.9
		C478.625,86.649,481.925,87.199,481.925,88.899z M473.124,79.949c0.5,0.1,1,0.1,1.5,0.1c0.95,0,1.801-0.1,2.7-0.25
		c0-0.9-0.5-3.9-1.75-3.9C473.725,75.898,473.274,78.549,473.124,79.949z"/>
</g>
<g>
	<path fill="#001E39" d="M296.479,155.708c0.084-2.436,0.448-4.816,0.448-7.224c0-0.756,0.028-1.344,0.924-1.344
		s1.624,0.392,1.624,1.372c0,2.856-0.224,5.712-0.364,8.568c-0.112,2.604-0.168,5.236-0.364,7.84c-0.504,0-0.98,0.168-1.512,0.168
		c-0.98,0-0.952-1.26-0.952-2.072c0-1.596,0.056-3.248,0.14-4.844c-0.952,0-1.876-0.112-2.8-0.112h-0.196
		c-0.028,2.128,0.028,6.636-0.7,6.86c-0.224,0.084-0.784,0.112-1.008,0.112c-0.28,0-1.036-0.056-1.036-0.476
		c0-1.036,0.168-2.268,0.168-3.5v-2.016c0-3.304,0.224-6.58,0.224-9.856c0-0.28-0.056-0.56-0.056-0.84
		c0-1.232,0.644-1.26,1.596-1.26c0.98,0,1.036,0.224,1.036,1.064c0,1.568-0.112,3.108-0.112,4.704v2.24v0.504
		c0.924,0,1.848,0.112,2.772,0.112H296.479z"/>
	<path fill="#001E39" d="M307.119,164.808c-0.168,0.084-0.448,0.252-0.672,0.252c-0.028,0-0.056,0-0.084-0.028
		c-0.168,0.028-0.364,0.056-0.532,0.056c-0.252,0-0.476,0-0.672-0.084l-0.672-0.112h0.028c-0.224-0.028-0.364-0.14-0.56-0.252
		c-2.156-1.036-2.436-3.08-2.436-5.936c0-2.296,0.644-6.3,3.612-6.3c0.364,0,0.756,0.028,1.12,0.168h-0.028
		c2.772,1.092,3.192,4.648,3.192,7.252c0,0.644-0.448,4.144-2.324,4.984H307.119z M303.843,159.012
		c0.252,1.344-0.252,3.808,1.764,3.808c1.232,0,0.924-2.912,0.924-3.948c0-1.344-0.084-4.116-1.12-4.116
		c-1.092,0-1.596,3.024-1.596,3.892C303.815,158.76,303.815,158.9,303.843,159.012z"/>
	<path fill="#001E39" d="M316.415,164.892c0.056-1.064,0.084-2.1,0.084-3.164c0-1.26-0.112-2.492-0.112-3.752
		c0-0.252,0.028-0.616,0.028-1.036c0-1.148-0.168-2.576-1.232-2.576c-1.036,0-1.12,1.008-1.12,1.82c0,2.604,0.364,5.18,0.364,7.756
		c0,1.316-0.728,1.148-1.54,1.148c-0.98,0-1.008-0.476-1.008-0.98c0-0.224,0.028-0.476,0.028-0.7c0-3.472-0.308-6.944-0.308-10.416
		c0-0.392,0.084-1.148,0.588-1.148c0.42,0,1.596-0.168,1.736,0.504c0.588-0.336,1.232-0.532,1.932-0.532c0.7,0,1.624,0.56,2.1,1.064
		h0.028c0.336-0.42,0.84-0.7,1.344-0.896h-0.028c0.336-0.168,0.7-0.224,1.064-0.224c0.42,0,0.812,0.084,1.204,0.28h-0.028
		c2.24,0.924,2.128,3.584,2.408,5.516c0.252,1.764,0.252,3.668,0.252,5.376c0,0.7-0.028,1.428-0.308,1.96
		c-0.112,0-0.224-0.028-0.308-0.028c-0.476,0-0.924,0.168-1.428,0.168c-1.036,0-0.98-1.792-0.98-2.828
		c0-0.924,0.084-1.82,0.084-2.772c0-0.7-0.084-2.884-0.28-3.472v0.028c-0.056-0.14-0.084-0.252-0.112-0.392h0.028
		c-0.112-0.42-0.364-1.232-0.868-1.232c-0.308,0-1.176,1.4-1.232,1.708c-0.056,0.28-0.056,0.588-0.056,0.868
		c0,2.604,0.252,5.208,0.336,7.812L316.415,164.892z"/>
	<path fill="#001E39" d="M334.139,161.504c0,2.1-1.904,3.584-3.92,3.584c-3.444,0-3.724-4.732-3.724-7.252
		c0-2.604,0.952-6.16,4.144-6.16c3.332,0,3.22,4.032,3.22,6.552c0,0.812-2.716,0.924-4.732,0.924v0.532
		c0,0.784,0.056,2.744,1.176,2.744c1.036,0,1.12-1.428,1.288-2.184C332.291,160.244,334.139,160.552,334.139,161.504z
		 M329.21,156.492c0.28,0.056,0.56,0.056,0.84,0.056c0.532,0,1.008-0.056,1.512-0.14c0-0.504-0.28-2.184-0.98-2.184
		C329.546,154.224,329.294,155.708,329.21,156.492z"/>
	<path fill="#001E39" d="M349.287,164.276c0-0.336,0.056-0.672,0.056-1.008c0.168-2.1,0.196-4.228,0.196-6.356
		c0-3.556-0.196-7.112-0.196-10.64c0-1.148,0.56-1.232,1.372-1.232s1.652-0.168,1.652,0.784c0,0.672-0.14,1.372-0.14,2.044v4.396
		c0,1.456-0.168,2.94-0.168,4.424c0,1.232,0.112,2.492,0.112,3.752c0,0.616-0.084,1.204-0.084,1.82c0,0.616,0.084,1.26,0.084,1.904
		c0,1.596-1.232,1.512-2.296,1.512C349.399,165.34,349.287,164.808,349.287,164.276z"/>
	<path fill="#001E39" d="M369.811,159.124c0,0.672,0.056,1.316,0.056,1.932c0,1.092-0.028,2.184-0.084,3.276
		c-0.028,0.672-0.308,0.7-1.26,0.7c-0.616,0-1.26-0.084-1.26-0.812c0-4.312,0.364-8.624,0.364-12.936c0-1.036-0.056-2.1-0.056-3.136
		c0-1.736,1.596-1.596,3.36-1.596c4.48,0,4.62,3.36,4.62,7.14c0,2.464-0.308,4.9-3.78,4.9c-0.644,0-1.26-0.112-1.932-0.112
		C369.811,158.704,369.811,158.928,369.811,159.124z M372.639,149.604h0.028c-0.504-0.392-1.26-0.504-1.848-0.504
		c-0.308,0-0.644,0.056-0.952,0.084c0.028,1.036,0.056,2.044,0.056,3.052c0,1.372-0.028,2.716-0.028,4.032h0.252
		c0.532,0,1.624,0.028,2.044-0.196c0.756-0.392,0.952-2.408,0.952-3.136C373.143,151.872,372.975,149.912,372.639,149.604z"/>
	<path fill="#001E39" d="M379.051,148.372c0.7,0,1.204,0.504,1.204,1.092c0,0.448-0.364,1.372-1.4,1.372
		c-1.12,0-1.288-0.42-1.288-1.092c0-0.364,0.168-0.756,0.588-1.12C378.462,148.456,378.798,148.372,379.051,148.372z
		 M379.387,151.676c0.924,0,1.12,0.168,1.12,1.064c0,2.884-0.364,5.768-0.364,8.652c0,0.952,0.14,1.904,0.14,2.828
		c0,0.672-0.392,0.784-0.98,0.784c-0.336,0-0.7,0-1.036-0.112h0.028c-0.056,0-0.14-0.028-0.196-0.028
		c-0.084,0-0.168,0.028-0.252,0.028c-0.112-0.42-0.168-0.84-0.168-1.232c0-2.604,0.084-5.208,0.084-7.812
		c0-1.064-0.084-2.128-0.084-3.164c0-1.008,0.896-0.924,0.98-0.952L379.387,151.676z"/>
	<path fill="#001E39" d="M386.134,154.364c-1.204,0-1.624,4.508-1.624,5.488c0,0.868,0.252,2.8,1.456,2.8
		c0.756,0,0.812-0.98,1.484-0.98c0.364,0,0.728,0.336,0.98,0.588v-0.028c0.252,0.28,0.448,0.588,0.448,0.98
		c0,1.204-1.876,1.876-2.856,1.876c-3.444,0-3.668-3.472-3.668-5.908c0-2.24,0.14-6.86,3.416-7.42c0.616,0,3.332,0.476,3.332,1.792
		c0,0.644-0.756,1.064-1.148,1.456v-0.028c-0.112,0.112-0.252,0.196-0.42,0.196C386.946,155.176,386.639,154.364,386.134,154.364z"
		/>
	<path fill="#001E39" d="M393.666,152.18c0.7,0.056,1.372,0,2.044,0.168l-0.028,0.28c0.084,0.28,0.14,0.56,0.14,0.868
		c0,0.868-0.504,0.896-1.176,0.896h-1.036c-0.028,0.504-0.028,1.036-0.028,1.54c0,2.1-0.084,6.58,0.532,6.692
		c0.252-0.084,0.252-0.28,0.616-0.28c0.224,0,1.54,1.036,1.54,1.232c0,0.98-1.26,1.512-2.1,1.512c-0.448,0-1.008-0.252-1.428-0.448
		l-0.112-0.028c-1.288-0.728-1.344-2.632-1.344-3.948c0-1.96,0-4.088-0.252-6.16c-0.112-0.028-0.252-0.028-0.364-0.028
		c-0.168,0-0.336,0.028-0.504,0.028c-0.336,0-0.504-0.784-0.504-1.456c0-1.232,0.672-0.896,1.232-0.896
		c0-0.672-0.028-1.288-0.028-1.932c0-1.204,0.784-1.12,1.54-1.12c0.252,0,0.504,0.028,1.064,0.336
		C393.554,150.332,393.61,151.256,393.666,152.18z"/>
	<path fill="#001E39" d="M406.658,158.62c0,1.54,0.336,3.64,0.336,5.292c0,1.148-0.393,1.064-1.204,1.064
		c-0.616,0-1.036,0.056-1.288-0.532c-0.616,0.476-0.812,0.448-1.54,0.588h0.028c-0.225,0.056-0.448,0.084-0.7,0.084
		c-1.261,0-2.352-0.616-3.052-1.624v0.028c-0.364-0.476-0.392-0.952-0.616-1.456l0.028,0.028c-0.308-0.812-0.336-3.892-0.336-5.488
		v-2.268c0-0.868,0-1.708,0.112-2.548c0.392-0.168,0.84-0.252,1.26-0.252c0.784,0,1.484,0,1.484,1.064
		c0,2.576-0.336,5.18-0.336,7.728c0,1.036,0.393,1.792,1.54,1.792c0.308,0,0.644-0.112,0.952-0.252l-0.028,0.028
		c0.672-0.392,0.7-2.156,0.7-2.996c0-2.184-0.309-4.396-0.309-6.58c0-0.756,0.953-0.84,1.681-0.84c1.399,0,1.344,0.252,1.344,1.036
		C406.714,154.532,406.658,156.576,406.658,158.62z"/>
	<path fill="#001E39" d="M411.643,151.228v0.056c0,0.112,0,0.224,0.027,0.336c0.645-0.28,0.672-0.42,1.456-0.42
		c1.429,0,2.017,0.7,2.772,1.792c0.111,0.168,0.168,0.336,0.168,0.532c0,0.28-0.168,0.532-0.393,0.7h0.028
		c-0.252,0.28-0.728,0.672-1.12,0.672c-0.084,0-0.168,0-0.252-0.028h0.028c-0.476-0.14-0.616-0.588-0.868-0.672l0.027,0.028
		c-0.223-0.14-0.476-0.168-0.728-0.168c-1.176,0-1.092,2.072-1.092,3.08c0,1.652,0.084,3.304,0.084,5.012
		c0,0.924-0.112,1.82-0.112,2.744c-0.42,0.168-0.756,0.168-1.147,0.168c-0.98,0-1.316-0.028-1.316-0.896
		c0-1.26,0.112-2.52,0.112-3.78v-5.068c0-1.204-0.225-2.464-0.225-3.612c0-0.952,1.289-0.84,1.904-0.84
		c0.141,0,0.28,0.028,0.42,0.084L411.643,151.228z"/>
	<path fill="#001E39" d="M423.458,161.504c0,2.1-1.904,3.584-3.92,3.584c-3.444,0-3.724-4.732-3.724-7.252
		c0-2.604,0.951-6.16,4.144-6.16c3.332,0,3.22,4.032,3.22,6.552c0,0.812-2.716,0.924-4.732,0.924v0.532
		c0,0.784,0.057,2.744,1.177,2.744c1.036,0,1.12-1.428,1.288-2.184C421.609,160.244,423.458,160.552,423.458,161.504z
		 M418.529,156.492c0.281,0.056,0.561,0.056,0.841,0.056c0.532,0,1.008-0.056,1.512-0.14c0-0.504-0.28-2.184-0.979-2.184
		C418.865,154.224,418.613,155.708,418.529,156.492z"/>
	<path fill="#001E39" d="M431.494,161.336c0,0.728-0.224,1.708-0.672,2.324v-0.028c-0.644,0.98-1.82,1.484-2.968,1.484
		c-1.063,0-2.044-0.364-2.856-1.008v0.028c-0.308-0.196-0.951-0.952-0.951-1.316c0.195-0.448,1.344-1.288,1.848-1.288
		c0.392,0,1.232,1.092,2.1,1.092c0.42,0,0.672-0.756,0.672-1.092c0-1.12-1.399-2.296-2.211-2.94
		c-1.373-1.036-2.213-1.652-2.213-3.556c0-1.96,1.708-3.556,3.612-3.556c0.28,0,0.56,0.028,0.84,0.14v-0.028
		c0.84,0.196,2.38,0.98,2.38,1.764c-0.28,0.42-1.399,1.372-1.876,1.372c-0.196,0-0.644-0.644-1.344-0.644
		c-0.56,0-0.812,0.448-0.812,0.952c0,0.924,0.924,1.596,1.567,2.1h-0.028C429.927,158.116,431.494,159.544,431.494,161.336z"/>
	<path fill="#001E39" d="M446.613,164.276c0-0.336,0.057-0.672,0.057-1.008c0.168-2.1,0.195-4.228,0.195-6.356
		c0-3.556-0.195-7.112-0.195-10.64c0-1.148,0.56-1.232,1.371-1.232c0.812,0,1.652-0.168,1.652,0.784c0,0.672-0.14,1.372-0.14,2.044
		v4.396c0,1.456-0.168,2.94-0.168,4.424c0,1.232,0.111,2.492,0.111,3.752c0,0.616-0.084,1.204-0.084,1.82
		c0,0.616,0.084,1.26,0.084,1.904c0,1.596-1.231,1.512-2.296,1.512C446.726,165.34,446.613,164.808,446.613,164.276z"/>
	<path fill="#001E39" d="M467.473,159.964c-0.309-1.484-0.84-2.884-1.204-4.34c-0.588-2.212-0.952-4.508-1.288-6.748l-0.252-2.464
		c0.7,0,1.372-0.224,2.044-0.224l0.28,0.028c0.363,0.392,0.363,1.54,0.42,2.044c0.14,1.848,0.588,3.864,0.952,5.684
		c0.224,1.204,0.42,2.38,0.699,3.556c0.393-3.472,1.148-6.608,1.708-9.884c0.084-0.532,0.141-0.924,0.477-1.4
		c0.111,0.028,0.252,0.028,0.363,0.028c0.364,0,0.729-0.056,1.12-0.056c0.532,0,0.896,0,0.896,0.784c0,0.532-0.252,1.064-0.393,1.54
		v-0.028c-0.699,3.36-1.203,6.776-1.792,10.136c-0.867,5.936-0.924,6.188-1.035,6.44h-0.168c-0.532,0-1.093-0.028-1.624-0.112
		c-0.616-1.596-0.729-3.332-1.177-4.984H467.473z"/>
	<path fill="#001E39" d="M477.244,148.372c0.7,0,1.204,0.504,1.204,1.092c0,0.448-0.364,1.372-1.4,1.372
		c-1.12,0-1.288-0.42-1.288-1.092c0-0.364,0.168-0.756,0.588-1.12C476.656,148.456,476.992,148.372,477.244,148.372z
		 M477.58,151.676c0.924,0,1.12,0.168,1.12,1.064c0,2.884-0.364,5.768-0.364,8.652c0,0.952,0.14,1.904,0.14,2.828
		c0,0.672-0.392,0.784-0.979,0.784c-0.336,0-0.7,0-1.036-0.112h0.028c-0.057,0-0.141-0.028-0.196-0.028
		c-0.084,0-0.168,0.028-0.252,0.028c-0.112-0.42-0.168-0.84-0.168-1.232c0-2.604,0.084-5.208,0.084-7.812
		c0-1.064-0.084-2.128-0.084-3.164c0-1.008,0.896-0.924,0.979-0.952L477.58,151.676z"/>
	<path fill="#001E39" d="M487.66,147.756c-0.028,0.364-0.028,0.728-0.028,1.092c0,0.728,0.028,1.456,0.028,2.184
		c0,2.856-0.196,5.684-0.196,8.54c0,1.26,0.057,2.492,0.057,3.752c0,0.532,0,1.036-0.028,1.568c-0.588,0.084-1.204,0.196-1.82,0.196
		c-0.252,0-0.531-0.056-0.756-0.224v-0.112c-0.195,0.112-0.42,0.14-0.672,0.14c-3.332,0-4.004-3.64-4.004-6.16
		c0-2.268-0.112-5.768,2.604-6.58h-0.028c0.224-0.084,0.476-0.112,0.728-0.112c0.448,0,0.925,0.14,1.372,0.252
		c0-1.064,0.057-2.1,0.057-3.164c0-0.532-0.028-1.036-0.057-1.568c0.42-0.42,1.008-0.56,1.597-0.56c0.308,0,0.615,0.028,0.867,0.084
		C487.521,147.252,487.66,147.532,487.66,147.756z M482.593,159.264c0,1.036,0.056,3.08,1.428,3.08c0.392,0,0.616-0.308,0.868-0.588
		c-0.084-0.42-0.141-0.924-0.141-1.456c0-1.4,0.225-3.052,0.225-4.172c0-0.56,0.195-1.372-1.204-1.372
		C482.62,154.756,482.593,158.228,482.593,159.264z"/>
	<path fill="#001E39" d="M497.152,161.504c0,2.1-1.904,3.584-3.92,3.584c-3.444,0-3.725-4.732-3.725-7.252
		c0-2.604,0.952-6.16,4.145-6.16c3.332,0,3.22,4.032,3.22,6.552c0,0.812-2.716,0.924-4.731,0.924v0.532
		c0,0.784,0.056,2.744,1.176,2.744c1.036,0,1.12-1.428,1.288-2.184C495.305,160.244,497.152,160.552,497.152,161.504z
		 M492.225,156.492c0.279,0.056,0.56,0.056,0.84,0.056c0.532,0,1.008-0.056,1.512-0.14c0-0.504-0.28-2.184-0.979-2.184
		C492.561,154.224,492.309,155.708,492.225,156.492z"/>
	<path fill="#001E39" d="M503.733,164.808c-0.168,0.084-0.448,0.252-0.673,0.252c-0.027,0-0.056,0-0.084-0.028
		c-0.168,0.028-0.363,0.056-0.531,0.056c-0.252,0-0.477,0-0.672-0.084l-0.673-0.112h0.028c-0.224-0.028-0.364-0.14-0.56-0.252
		c-2.156-1.036-2.437-3.08-2.437-5.936c0-2.296,0.645-6.3,3.612-6.3c0.364,0,0.756,0.028,1.12,0.168h-0.028
		c2.772,1.092,3.192,4.648,3.192,7.252c0,0.644-0.448,4.144-2.324,4.984H503.733z M500.457,159.012
		c0.252,1.344-0.252,3.808,1.764,3.808c1.232,0,0.924-2.912,0.924-3.948c0-1.344-0.084-4.116-1.119-4.116
		c-1.093,0-1.597,3.024-1.597,3.892C500.429,158.76,500.429,158.9,500.457,159.012z"/>
	<path fill="#001E39" d="M514.009,161.336c0,0.728-0.224,1.708-0.672,2.324v-0.028c-0.644,0.98-1.82,1.484-2.968,1.484
		c-1.064,0-2.044-0.364-2.856-1.008v0.028c-0.308-0.196-0.952-0.952-0.952-1.316c0.196-0.448,1.345-1.288,1.849-1.288
		c0.392,0,1.231,1.092,2.1,1.092c0.42,0,0.672-0.756,0.672-1.092c0-1.12-1.399-2.296-2.212-2.94
		c-1.372-1.036-2.212-1.652-2.212-3.556c0-1.96,1.708-3.556,3.612-3.556c0.28,0,0.56,0.028,0.84,0.14v-0.028
		c0.84,0.196,2.38,0.98,2.38,1.764c-0.28,0.42-1.399,1.372-1.876,1.372c-0.196,0-0.644-0.644-1.344-0.644
		c-0.561,0-0.812,0.448-0.812,0.952c0,0.924,0.925,1.596,1.568,2.1h-0.028C512.441,158.116,514.009,159.544,514.009,161.336z"/>
</g>
<polygon fill="none" stroke="#001E39" stroke-miterlimit="10" points="241,269 141,369 141,379 241,279 "/>
<polygon fill="none" stroke="#001E39" stroke-miterlimit="10" points="383,137 401,119 391,119 373,137 "/>
<polygon fill="none" stroke="#001E39" stroke-miterlimit="10" points="480,40 498,22 488,22 470,40 "/>
<polygon fill="none" stroke="#001E39" stroke-miterlimit="10" points="333.5,176.5 315,195 325,195 343.5,176.5 "/>
<polygon fill="none" stroke="#001E39" stroke-miterlimit="10" points="333,137 351,119 341,119 323,137 "/>
<polygon fill="none" stroke="#001E39" stroke-miterlimit="10" points="430,40 448,22 438,22 420,40 "/>
<polygon fill="none" stroke="#001E39" stroke-miterlimit="10" points="241,219 141,319 141,329 241,229 "/>
<polygon fill="none" stroke="#001E39" stroke-miterlimit="10" points="283.5,176.5 265,195 275,195 293.5,176.5 "/>
<polygon fill="none" stroke="#001E39" stroke-miterlimit="10" points="353,137 371,119 361,119 343,137 "/>
<polygon fill="none" stroke="#001E39" stroke-miterlimit="10" points="303.5,176.5 285,195 295,195 313.5,176.5 "/>
<polygon fill="none" stroke="#001E39" stroke-miterlimit="10" points="241,239 141,339 141,349 241,249 "/>
<polygon fill="none" stroke="#001E39" stroke-miterlimit="10" points="450,40 468,22 458,22 440,40 "/>
<polygon fill="none" stroke="#001E39" stroke-miterlimit="10" points="373,137 391,119 381,119 363,137 "/>
<polygon fill="none" stroke="#001E39" stroke-miterlimit="10" points="323.5,176.5 305,195 315,195 333.5,176.5 "/>
<polygon fill="none" stroke="#001E39" stroke-miterlimit="10" points="241,259 141,359 141,369 241,269 "/>
<polygon fill="none" stroke="#001E39" stroke-miterlimit="10" points="470,40 488,22 478,22 460,40 "/>
<polygon fill="none" stroke="#001E39" stroke-miterlimit="10" points="460,40 478,22 468,22 450,40 "/>
<polygon fill="none" stroke="#001E39" stroke-miterlimit="10" points="363,137 381,119 371,119 353,137 "/>
<polygon fill="none" stroke="#001E39" stroke-miterlimit="10" points="241,249 141,349 141,359 241,259 "/>
<polygon fill="none" stroke="#001E39" stroke-miterlimit="10" points="313.5,176.5 295,195 305,195 323.5,176.5 "/>
<polygon fill="none" stroke="#001E39" stroke-miterlimit="10" points="440,40 458,22 448,22 430,40 "/>
<polygon fill="none" stroke="#001E39" stroke-miterlimit="10" points="343,137 361,119 351,119 333,137 "/>
<polygon fill="none" stroke="#001E39" stroke-miterlimit="10" points="241,229 141,329 141,339 241,239 "/>
<polygon fill="none" stroke="#001E39" stroke-miterlimit="10" points="293.5,176.5 275,195 285,195 303.5,176.5 "/>
<polygon fill="none" stroke="#001E39" stroke-miterlimit="10" points="301,119 283,137 293,137 311,119 "/>
<polygon fill="none" stroke="#001E39" stroke-miterlimit="10" points="243.5,176.5 141,279 141,289 253.5,176.5 "/>
<polygon fill="none" stroke="#001E39" stroke-miterlimit="10" points="390,40 408,22 398,22 380,40 "/>
<polygon fill="none" stroke="#001E39" stroke-miterlimit="10" points="291,119 273,137 283,137 301,119 "/>
<polygon fill="none" stroke="#001E39" stroke-miterlimit="10" points="380,40 398,22 388,22 370,40 "/>
<polygon fill="none" stroke="#001E39" stroke-miterlimit="10" points="241,176.5 241,169 141,269 141,279 243.5,176.5 "/>
<polygon fill="none" stroke="#001E39" stroke-miterlimit="10" points="241,195 245,195 263.5,176.5 253.5,176.5 141,289 141,299 
	241,199 "/>
<polygon fill="none" stroke="#001E39" stroke-miterlimit="10" points="400,40 418,22 408,22 390,40 "/>
<polygon fill="none" stroke="#001E39" stroke-miterlimit="10" points="311,119 293,137 303,137 321,119 "/>
<polygon fill="none" stroke="#001E39" stroke-miterlimit="10" points="321,119 303,137 313,137 331,119 "/>
<polygon fill="none" stroke="#001E39" stroke-miterlimit="10" points="241,199 141,299 141,309 241,209 "/>
<polygon fill="none" stroke="#001E39" stroke-miterlimit="10" points="273.5,176.5 263.5,176.5 245,195 255,195 "/>
<polygon fill="none" stroke="#001E39" stroke-miterlimit="10" points="410,40 428,22 418,22 400,40 "/>
<polygon fill="none" stroke="#001E39" stroke-miterlimit="10" points="273.5,176.5 255,195 265,195 283.5,176.5 "/>
<polygon fill="none" stroke="#001E39" stroke-miterlimit="10" points="341,119 331,119 313,137 323,137 "/>
<polygon fill="none" stroke="#001E39" stroke-miterlimit="10" points="420,40 438,22 428,22 410,40 "/>
<polygon fill="none" stroke="#001E39" stroke-miterlimit="10" points="241,209 141,309 141,319 241,219 "/>
<polygon fill="none" stroke="#001E39" stroke-miterlimit="10" points="520,40 538,22 528,22 510,40 "/>
<polygon fill="none" stroke="#001E39" stroke-miterlimit="10" points="241,309 141,409 141,419 241,319 "/>
<polygon fill="none" stroke="#001E39" stroke-miterlimit="10" points="423,137 441,119 431,119 413,137 "/>
<polygon fill="none" stroke="#001E39" stroke-miterlimit="10" points="373.5,176.5 355,195 365,195 383.5,176.5 "/>
<polygon fill="none" stroke="#001E39" stroke-miterlimit="10" points="453,137 471,119 461,119 443,137 "/>
<polygon fill="none" stroke="#001E39" stroke-miterlimit="10" points="403.5,176.5 385,195 395,195 413.5,176.5 "/>
<polygon fill="none" stroke="#001E39" stroke-miterlimit="10" points="241,339 152,428 162,428 241,349 "/>
<polygon fill="none" stroke="#001E39" stroke-miterlimit="10" points="550,40 568,22 558,22 540,40 "/>
<polygon fill="none" stroke="#001E39" stroke-miterlimit="10" points="560,40 578,22 568,22 550,40 "/>
<polygon fill="none" stroke="#001E39" stroke-miterlimit="10" points="413.5,176.5 395,195 405,195 423.5,176.5 "/>
<polygon fill="none" stroke="#001E39" stroke-miterlimit="10" points="463,137 481,119 471,119 453,137 "/>
<polygon fill="none" stroke="#001E39" stroke-miterlimit="10" points="241,349 162,428 172,428 241,359 "/>
<polygon fill="none" stroke="#001E39" stroke-miterlimit="10" points="241,359 172,428 182,428 241,369 "/>
<polygon fill="none" stroke="#001E39" stroke-miterlimit="10" points="473,137 491,119 481,119 463,137 "/>
<polygon fill="none" stroke="#001E39" stroke-miterlimit="10" points="423.5,176.5 405,195 415,195 433.5,176.5 "/>
<polygon fill="none" stroke="#001E39" stroke-miterlimit="10" points="562,40 562,48 588,22 578,22 560,40 "/>
<polygon fill="none" stroke="#001E39" stroke-miterlimit="10" points="241,329 142,428 152,428 241,339 "/>
<polygon fill="none" stroke="#001E39" stroke-miterlimit="10" points="393.5,176.5 375,195 385,195 403.5,176.5 "/>
<polygon fill="none" stroke="#001E39" stroke-miterlimit="10" points="443,137 461,119 451,119 433,137 "/>
<polygon fill="none" stroke="#001E39" stroke-miterlimit="10" points="540,40 558,22 548,22 530,40 "/>
<polygon fill="none" stroke="#001E39" stroke-miterlimit="10" points="562,58 598,22 588,22 562,48 "/>
<polygon fill="none" stroke="#001E39" stroke-miterlimit="10" points="241,369 182,428 192,428 241,379 "/>
<polygon fill="none" stroke="#001E39" stroke-miterlimit="10" points="433.5,176.5 415,195 425,195 443.5,176.5 "/>
<polygon fill="none" stroke="#001E39" stroke-miterlimit="10" points="483,137 501,119 491,119 473,137 "/>
<polygon fill="none" stroke="#001E39" stroke-miterlimit="10" points="413,137 431,119 421,119 403,137 "/>
<polygon fill="none" stroke="#001E39" stroke-miterlimit="10" points="241,299 141,399 141,409 241,309 "/>
<polygon fill="none" stroke="#001E39" stroke-miterlimit="10" points="510,40 528,22 518,22 500,40 "/>
<polygon fill="none" stroke="#001E39" stroke-miterlimit="10" points="363.5,176.5 345,195 355,195 373.5,176.5 "/>
<polygon fill="none" stroke="#001E39" stroke-miterlimit="10" points="433,137 451,119 441,119 423,137 "/>
<polygon fill="none" stroke="#001E39" stroke-miterlimit="10" points="383.5,176.5 365,195 375,195 393.5,176.5 "/>
<polygon fill="none" stroke="#001E39" stroke-miterlimit="10" points="241,319 141,419 141,428 142,428 241,329 "/>
<polygon fill="none" stroke="#001E39" stroke-miterlimit="10" points="530,40 548,22 538,22 520,40 "/>
<polygon fill="none" stroke="#001E39" stroke-miterlimit="10" points="241,289 141,389 141,399 241,299 "/>
<polygon fill="none" stroke="#001E39" stroke-miterlimit="10" points="403,137 421,119 411,119 393,137 "/>
<polygon fill="none" stroke="#001E39" stroke-miterlimit="10" points="500,40 518,22 508,22 490,40 "/>
<polygon fill="none" stroke="#001E39" stroke-miterlimit="10" points="353.5,176.5 335,195 345,195 363.5,176.5 "/>
<polygon fill="none" stroke="#001E39" stroke-miterlimit="10" points="393,137 411,119 401,119 383,137 "/>
<polygon fill="none" stroke="#001E39" stroke-miterlimit="10" points="241,279 141,379 141,389 241,289 "/>
<polygon fill="none" stroke="#001E39" stroke-miterlimit="10" points="490,40 508,22 498,22 480,40 "/>
<polygon fill="none" stroke="#001E39" stroke-miterlimit="10" points="343.5,176.5 325,195 335,195 353.5,176.5 "/>
<polygon fill="none" stroke="#001E39" stroke-miterlimit="10" points="241,159 141,259 141,269 241,169 "/>
<polygon fill="none" stroke="#001E39" stroke-miterlimit="10" points="370,40 388,22 378,22 360,40 "/>
<polygon fill="none" stroke="#001E39" stroke-miterlimit="10" points="281,119 263,137 273,137 291,119 "/>
<polygon fill="none" stroke="#001E39" stroke-miterlimit="10" points="241,89 141,189 141,199 241,99 "/>
<polygon fill="none" stroke="#001E39" stroke-miterlimit="10" points="300,40 318,22 308,22 290,40 "/>
<polygon fill="none" stroke="#001E39" stroke-miterlimit="10" points="228,22 141,109 141,119 238,22 "/>
<polygon fill="none" stroke="#001E39" stroke-miterlimit="10" points="218,22 141,99 141,109 228,22 "/>
<polygon fill="none" stroke="#001E39" stroke-miterlimit="10" points="248,22 141,129 141,139 258,22 "/>
<polygon fill="none" stroke="#001E39" stroke-miterlimit="10" points="241,40 250,40 268,22 258,22 141,139 141,149 241,49 "/>
<polygon fill="none" stroke="#001E39" stroke-miterlimit="10" points="198,22 141,79 141,89 208,22 "/>
<polygon fill="none" stroke="#001E39" stroke-miterlimit="10" points="238,22 141,119 141,129 248,22 "/>
<polygon fill="none" stroke="#001E39" stroke-miterlimit="10" points="141,22 141,39 158,22 "/>
<polygon fill="none" stroke="#001E39" stroke-miterlimit="10" points="360,40 378,22 368,22 350,40 "/>
<polygon fill="none" stroke="#001E39" stroke-miterlimit="10" points="241,149 141,249 141,259 241,159 "/>
<polygon fill="none" stroke="#001E39" stroke-miterlimit="10" points="271,119 253,137 263,137 281,119 "/>
<polygon fill="none" stroke="#001E39" stroke-miterlimit="10" points="168,22 141,49 141,59 178,22 "/>
<polygon fill="none" stroke="#001E39" stroke-miterlimit="10" points="188,22 141,69 141,79 198,22 "/>
<polygon fill="none" stroke="#001E39" stroke-miterlimit="10" points="178,22 141,59 141,69 188,22 "/>
<polygon fill="none" stroke="#001E39" stroke-miterlimit="10" points="158,22 141,39 141,49 168,22 "/>
<polygon fill="none" stroke="#001E39" stroke-miterlimit="10" points="320,40 338,22 328,22 310,40 "/>
<polygon fill="none" stroke="#001E39" stroke-miterlimit="10" points="241,109 141,209 141,219 241,119 "/>
<polygon fill="none" stroke="#001E39" stroke-miterlimit="10" points="241,99 141,199 141,209 241,109 "/>
<polygon fill="none" stroke="#001E39" stroke-miterlimit="10" points="310,40 328,22 318,22 300,40 "/>
<polygon fill="none" stroke="#001E39" stroke-miterlimit="10" points="330,40 348,22 338,22 320,40 "/>
<polygon fill="none" stroke="#001E39" stroke-miterlimit="10" points="241,119 141,219 141,229 251,119 "/>
<polygon fill="none" stroke="#001E39" stroke-miterlimit="10" points="340,40 358,22 348,22 330,40 "/>
<polygon fill="none" stroke="#001E39" stroke-miterlimit="10" points="241,137 243,137 261,119 251,119 141,229 141,239 241,139 "/>
<polygon fill="none" stroke="#001E39" stroke-miterlimit="10" points="350,40 368,22 358,22 340,40 "/>
<polygon fill="none" stroke="#001E39" stroke-miterlimit="10" points="271,119 261,119 243,137 253,137 "/>
<polygon fill="none" stroke="#001E39" stroke-miterlimit="10" points="241,139 141,239 141,249 241,149 "/>
<polygon fill="none" stroke="#001E39" stroke-miterlimit="10" points="443.5,176.5 425,195 435,195 453.5,176.5 "/>
<polygon fill="none" stroke="#001E39" stroke-miterlimit="10" points="493,137 511,119 501,119 483,137 "/>
<polygon fill="none" stroke="#001E39" stroke-miterlimit="10" points="241,379 192,428 202,428 241,389 "/>
<polygon fill="none" stroke="#001E39" stroke-miterlimit="10" points="562,68 608,22 598,22 562,58 "/>
<polygon fill="none" stroke="#001E39" stroke-miterlimit="10" points="241,69 141,169 141,179 241,79 "/>
<polygon fill="none" stroke="#001E39" stroke-miterlimit="10" points="280,40 298,22 288,22 270,40 "/>
<polygon fill="none" stroke="#001E39" stroke-miterlimit="10" points="241,59 141,159 141,169 241,69 "/>
<polygon fill="none" stroke="#001E39" stroke-miterlimit="10" points="270,40 288,22 278,22 260,40 "/>
<polygon fill="none" stroke="#001E39" stroke-miterlimit="10" points="241,79 141,179 141,189 241,89 "/>
<polygon fill="none" stroke="#001E39" stroke-miterlimit="10" points="290,40 308,22 298,22 280,40 "/>
<polygon fill="none" stroke="#001E39" stroke-miterlimit="10" points="260,40 278,22 268,22 250,40 "/>
<polygon fill="none" stroke="#001E39" stroke-miterlimit="10" points="241,49 141,149 141,159 241,59 "/>
<polygon fill="none" stroke="#001E39" stroke-miterlimit="10" points="208,22 141,89 141,99 218,22 "/>
<polygon fill="none" stroke="#001E39" stroke-miterlimit="10" points="562,368 659,271 659,261 562,358 "/>
<polygon fill="none" stroke="#001E39" stroke-miterlimit="10" points="562,378 659,281 659,271 562,368 "/>
<polygon fill="none" stroke="#001E39" stroke-miterlimit="10" points="562,308 659,211 659,201 562,298 "/>
<polygon fill="none" stroke="#001E39" stroke-miterlimit="10" points="562,398 659,301 659,291 562,388 "/>
<polygon fill="none" stroke="#001E39" stroke-miterlimit="10" points="562,408 659,311 659,301 562,398 "/>
<polygon fill="none" stroke="#001E39" stroke-miterlimit="10" points="562,338 659,241 659,231 562,328 "/>
<polygon fill="none" stroke="#001E39" stroke-miterlimit="10" points="562,318 659,221 659,211 562,308 "/>
<polygon fill="none" stroke="#001E39" stroke-miterlimit="10" points="562,358 659,261 659,251 562,348 "/>
<polygon fill="none" stroke="#001E39" stroke-miterlimit="10" points="562,328 659,231 659,221 562,318 "/>
<polygon fill="none" stroke="#001E39" stroke-miterlimit="10" points="562,348 659,251 659,241 562,338 "/>
<polygon fill="none" stroke="#001E39" stroke-miterlimit="10" points="562,418 659,321 659,311 562,408 "/>
<polygon fill="none" stroke="#001E39" stroke-miterlimit="10" points="562,388 659,291 659,281 562,378 "/>
<polygon fill="none" stroke="#001E39" stroke-miterlimit="10" points="622,428 659,391 659,381 612,428 "/>
<polygon fill="none" stroke="#001E39" stroke-miterlimit="10" points="632,428 659,401 659,391 622,428 "/>
<polygon fill="none" stroke="#001E39" stroke-miterlimit="10" points="642,428 659,411 659,401 632,428 "/>
<polygon fill="none" stroke="#001E39" stroke-miterlimit="10" points="659,428 659,411 642,428 "/>
<polygon fill="none" stroke="#001E39" stroke-miterlimit="10" points="612,428 659,381 659,371 602,428 "/>
<polygon fill="none" stroke="#001E39" stroke-miterlimit="10" points="572,428 659,341 659,331 562,428 "/>
<polygon fill="none" stroke="#001E39" stroke-miterlimit="10" points="582,428 659,351 659,341 572,428 "/>
<polygon fill="none" stroke="#001E39" stroke-miterlimit="10" points="562,428 659,331 659,321 562,418 "/>
<polygon fill="none" stroke="#001E39" stroke-miterlimit="10" points="602,428 659,371 659,361 592,428 "/>
<polygon fill="none" stroke="#001E39" stroke-miterlimit="10" points="592,428 659,361 659,351 582,428 "/>
<polygon fill="none" stroke="#001E39" stroke-miterlimit="10" points="562,208 659,111 659,101 562,198 "/>
<polygon fill="none" stroke="#001E39" stroke-miterlimit="10" points="513.5,176.5 495,195 505,195 523.5,176.5 "/>
<polygon fill="none" stroke="#001E39" stroke-miterlimit="10" points="562,137 562,138 659,41 659,31 553,137 "/>
<polygon fill="none" stroke="#001E39" stroke-miterlimit="10" points="533.5,176.5 515,195 525,195 543.5,176.5 "/>
<polygon fill="none" stroke="#001E39" stroke-miterlimit="10" points="562,158 659,61 659,51 562,148 "/>
<polygon fill="none" stroke="#001E39" stroke-miterlimit="10" points="523.5,176.5 505,195 515,195 533.5,176.5 "/>
<polygon fill="none" stroke="#001E39" stroke-miterlimit="10" points="562,148 659,51 659,41 562,138 "/>
<polygon fill="none" stroke="#001E39" stroke-miterlimit="10" points="562,176.5 553.5,176.5 535,195 545,195 659,81 659,71 
	562,168 "/>
<polygon fill="none" stroke="#001E39" stroke-miterlimit="10" points="562,168 659,71 659,61 562,158 "/>
<polygon fill="none" stroke="#001E39" stroke-miterlimit="10" points="525,195 535,195 553.5,176.5 543.5,176.5 "/>
<polygon fill="none" stroke="#001E39" stroke-miterlimit="10" points="562,298 659,201 659,191 562,288 "/>
<polygon fill="none" stroke="#001E39" stroke-miterlimit="10" points="555,195 659,91 659,81 545,195 "/>
<polygon fill="none" stroke="#001E39" stroke-miterlimit="10" points="562,98 638,22 628,22 562,88 "/>
<polygon fill="none" stroke="#001E39" stroke-miterlimit="10" points="523,137 541,119 531,119 513,137 "/>
<polygon fill="none" stroke="#001E39" stroke-miterlimit="10" points="241,409 222,428 232,428 241,419 "/>
<polygon fill="none" stroke="#001E39" stroke-miterlimit="10" points="473.5,176.5 455,195 465,195 483.5,176.5 "/>
<polygon fill="none" stroke="#001E39" stroke-miterlimit="10" points="562,88 628,22 618,22 562,78 "/>
<polygon fill="none" stroke="#001E39" stroke-miterlimit="10" points="445,195 455,195 473.5,176.5 463.5,176.5 "/>
<polygon fill="none" stroke="#001E39" stroke-miterlimit="10" points="513,137 531,119 521,119 503,137 "/>
<polygon fill="none" stroke="#001E39" stroke-miterlimit="10" points="241,399 212,428 222,428 241,409 "/>
<polygon fill="none" stroke="#001E39" stroke-miterlimit="10" points="523,137 533,137 551,119 541,119 "/>
<polygon fill="none" stroke="#001E39" stroke-miterlimit="10" points="483.5,176.5 465,195 475,195 493.5,176.5 "/>
<polygon fill="none" stroke="#001E39" stroke-miterlimit="10" points="232,428 241,428 241,419 "/>
<polygon fill="none" stroke="#001E39" stroke-miterlimit="10" points="562,108 648,22 638,22 562,98 "/>
<polygon fill="none" stroke="#001E39" stroke-miterlimit="10" points="493.5,176.5 475,195 485,195 503.5,176.5 "/>
<polygon fill="none" stroke="#001E39" stroke-miterlimit="10" points="562,118 658,22 648,22 562,108 "/>
<polygon fill="none" stroke="#001E39" stroke-miterlimit="10" points="533,137 543,137 561,119 551,119 "/>
<polygon fill="none" stroke="#001E39" stroke-miterlimit="10" points="658,22 562,118 562,119 561,119 543,137 553,137 659,31 
	659,22 "/>
<polygon fill="none" stroke="#001E39" stroke-miterlimit="10" points="503.5,176.5 485,195 495,195 513.5,176.5 "/>
<polygon fill="none" stroke="#001E39" stroke-miterlimit="10" points="562,268 659,171 659,161 562,258 "/>
<polygon fill="none" stroke="#001E39" stroke-miterlimit="10" points="562,258 659,161 659,151 562,248 "/>
<polygon fill="none" stroke="#001E39" stroke-miterlimit="10" points="562,278 659,181 659,171 562,268 "/>
<polygon fill="none" stroke="#001E39" stroke-miterlimit="10" points="562,288 659,191 659,181 562,278 "/>
<polygon fill="none" stroke="#001E39" stroke-miterlimit="10" points="562,248 659,151 659,141 562,238 "/>
<polygon fill="none" stroke="#001E39" stroke-miterlimit="10" points="562,195 562,198 659,101 659,91 555,195 "/>
<polygon fill="none" stroke="#001E39" stroke-miterlimit="10" points="453.5,176.5 435,195 445,195 463.5,176.5 "/>
<polygon fill="none" stroke="#001E39" stroke-miterlimit="10" points="562,78 618,22 608,22 562,68 "/>
<polygon fill="none" stroke="#001E39" stroke-miterlimit="10" points="503,137 521,119 511,119 493,137 "/>
<polygon fill="none" stroke="#001E39" stroke-miterlimit="10" points="241,389 202,428 212,428 241,399 "/>
<polygon fill="none" stroke="#001E39" stroke-miterlimit="10" points="562,218 659,121 659,111 562,208 "/>
<polygon fill="none" stroke="#001E39" stroke-miterlimit="10" points="562,238 659,141 659,131 562,228 "/>
<polygon fill="none" stroke="#001E39" stroke-miterlimit="10" points="562,228 659,131 659,121 562,218 "/>
<polygon fill="#FFFFFF" stroke="#000000" stroke-miterlimit="10" points="562,119 562,118 561,119 "/>
<polygon fill="#FFFFFF" stroke="#000000" stroke-miterlimit="10" points="241,137 241,139 243,137 "/>
<g>
	<path fill="#001E39" d="M272.339,237.17c-0.3-0.48-1.77-8.49-1.92-9.479c-0.54,2.91-1.2,5.819-1.62,8.729
		c-0.09,0.51-0.24,0.69-0.72,0.81l0.03-0.029c-0.27,0.09-0.54,0.09-0.81,0.09c-0.21,0-0.54,0-0.78-0.09
		c-0.57-0.181-2.82-8.88-3.06-10.11c-0.39-1.949-0.66-3.989-0.99-5.969c-0.12-0.81-0.45-2.19-0.45-3c0-0.24,1.56-0.24,1.8-0.24
		c0.54,0,1.08,0,1.65,0.06c0.12,0.96,0.06,1.92,0.15,2.85c0.06,0.72,0.27,1.44,0.42,2.16l0.84,4.35c0.15,0.779,0.27,1.59,0.33,2.399
		c0.3-1.229,1.38-9.06,1.77-9.419c0.24-0.21,0.66-0.24,0.93-0.24c0.42,0,1.11,0.09,1.44,0.36c0.48,0.39,2.1,9.39,2.16,10.529
		c0.39-2.219,0.42-4.739,0.72-7.079c0.09-0.75,0.78-6.42,1.29-6.69c0.18,0.03,0.33,0.06,0.51,0.06c0.06,0,0.15-0.03,0.21-0.03
		c0.42,0,1.53,0.39,1.95,0.54c-0.27,2.58-0.63,5.22-1.08,7.77c-0.18,0.929-1.92,11.099-2.04,11.309c-0.33,0.48-1.11,0.57-1.65,0.57
		C273.06,237.38,272.64,237.32,272.339,237.17z"/>
	<path fill="#001E39" d="M286.5,233.54c0,2.25-2.04,3.84-4.2,3.84c-3.69,0-3.99-5.069-3.99-7.77c0-2.79,1.02-6.6,4.44-6.6
		c3.57,0,3.45,4.32,3.45,7.02c0,0.87-2.91,0.99-5.07,0.99v0.569c0,0.84,0.06,2.94,1.26,2.94c1.11,0,1.2-1.53,1.38-2.34
		C284.52,232.19,286.5,232.521,286.5,233.54z M281.22,228.17c0.3,0.061,0.6,0.061,0.9,0.061c0.57,0,1.08-0.061,1.62-0.15
		c0-0.54-0.3-2.34-1.05-2.34C281.58,225.74,281.31,227.33,281.22,228.17z"/>
	<path fill="#001E39" d="M291.12,236.96c-0.63,0.03-1.32,0.12-1.95,0.21c-0.42-0.3-0.54-0.81-0.54-1.29c0-1.05,0.15-2.1,0.15-3.18
		c0-2.43,0.12-12.87,0.21-14.399l0.24-0.33c0.63-0.18,1.32-0.15,1.979-0.3c0.21,0.27,0.27,0.81,0.27,1.32
		c0,1.44-0.12,3.27-0.12,4.83C291.36,226.311,291.12,232.25,291.12,236.96z"/>
	<path fill="#001E39" d="M297.87,225.89c-1.29,0-1.74,4.83-1.74,5.88c0,0.93,0.27,2.999,1.56,2.999c0.81,0,0.87-1.05,1.59-1.05
		c0.39,0,0.78,0.36,1.05,0.63v-0.029c0.27,0.3,0.48,0.63,0.48,1.05c0,1.29-2.01,2.01-3.06,2.01c-3.69,0-3.93-3.72-3.93-6.33
		c0-2.399,0.15-7.35,3.66-7.949c0.66,0,3.57,0.51,3.57,1.92c0,0.69-0.81,1.14-1.23,1.56v-0.029c-0.12,0.119-0.27,0.209-0.45,0.209
		C298.74,226.76,298.41,225.89,297.87,225.89z"/>
	<path fill="#001E39" d="M308.04,237.08c-0.18,0.09-0.48,0.27-0.72,0.27c-0.03,0-0.06,0-0.09-0.029c-0.18,0.029-0.39,0.06-0.57,0.06
		c-0.27,0-0.51,0-0.72-0.09l-0.72-0.12h0.03c-0.24-0.03-0.39-0.15-0.6-0.27c-2.31-1.11-2.61-3.301-2.61-6.36
		c0-2.46,0.69-6.75,3.87-6.75c0.39,0,0.81,0.03,1.2,0.18h-0.03c2.97,1.17,3.42,4.98,3.42,7.77c0,0.689-0.48,4.439-2.49,5.34H308.04z
		 M304.53,230.87c0.27,1.44-0.27,4.08,1.89,4.08c1.32,0,0.99-3.12,0.99-4.23c0-1.439-0.09-4.409-1.2-4.409
		c-1.17,0-1.71,3.24-1.71,4.17C304.5,230.601,304.5,230.75,304.53,230.87z"/>
	<path fill="#001E39" d="M318,237.17c0.06-1.14,0.09-2.25,0.09-3.39c0-1.351-0.12-2.67-0.12-4.021c0-0.27,0.03-0.66,0.03-1.109
		c0-1.23-0.18-2.76-1.32-2.76c-1.11,0-1.2,1.081-1.2,1.95c0,2.79,0.39,5.55,0.39,8.311c0,1.409-0.78,1.229-1.65,1.229
		c-1.05,0-1.08-0.51-1.08-1.05c0-0.24,0.03-0.51,0.03-0.75c0-3.72-0.33-7.439-0.33-11.16c0-0.42,0.09-1.23,0.63-1.23
		c0.45,0,1.71-0.18,1.86,0.54c0.63-0.36,1.32-0.57,2.07-0.57s1.74,0.6,2.25,1.14h0.03c0.36-0.45,0.9-0.75,1.439-0.96h-0.03
		c0.36-0.18,0.75-0.24,1.14-0.24c0.45,0,0.87,0.09,1.29,0.3h-0.03c2.4,0.99,2.28,3.84,2.58,5.91c0.27,1.89,0.27,3.93,0.27,5.76
		c0,0.75-0.03,1.529-0.33,2.1c-0.12,0-0.24-0.03-0.33-0.03c-0.51,0-0.99,0.181-1.53,0.181c-1.11,0-1.05-1.92-1.05-3.03
		c0-0.99,0.09-1.95,0.09-2.97c0-0.75-0.09-3.09-0.3-3.721v0.031c-0.06-0.15-0.09-0.271-0.12-0.42h0.03
		c-0.12-0.451-0.39-1.321-0.93-1.321c-0.33,0-1.26,1.5-1.32,1.831c-0.06,0.3-0.06,0.629-0.06,0.93c0,2.79,0.27,5.58,0.36,8.369
		L318,237.17z"/>
	<path fill="#001E39" d="M336.989,233.54c0,2.25-2.04,3.84-4.2,3.84c-3.69,0-3.99-5.069-3.99-7.77c0-2.79,1.02-6.6,4.44-6.6
		c3.57,0,3.45,4.32,3.45,7.02c0,0.87-2.91,0.99-5.07,0.99v0.569c0,0.84,0.06,2.94,1.26,2.94c1.11,0,1.2-1.53,1.38-2.34
		C335.01,232.19,336.989,232.521,336.989,233.54z M331.709,228.17c0.3,0.061,0.6,0.061,0.9,0.061c0.57,0,1.08-0.061,1.62-0.15
		c0-0.54-0.3-2.34-1.05-2.34C332.07,225.74,331.8,227.33,331.709,228.17z"/>
</g>
<line fill="none" stroke="#001E39" stroke-width="5" stroke-miterlimit="10" x1="263" y1="264" x2="536" y2="264"/>
<line fill="none" stroke="#001E39" stroke-width="5" stroke-miterlimit="10" x1="263" y1="279" x2="536" y2="279"/>
<line fill="none" stroke="#001E39" stroke-width="5" stroke-miterlimit="10" x1="263" y1="294" x2="357.367" y2="294"/>
<line fill="none" stroke="#001E39" stroke-width="5" stroke-miterlimit="10" x1="263" y1="324" x2="536" y2="324"/>
<line fill="none" stroke="#001E39" stroke-width="5" stroke-miterlimit="10" x1="263" y1="339" x2="536" y2="339"/>
<line fill="none" stroke="#001E39" stroke-width="5" stroke-miterlimit="10" x1="263" y1="354" x2="536" y2="354"/>
<line fill="none" stroke="#001E39" stroke-width="5" stroke-miterlimit="10" x1="263" y1="369" x2="536" y2="369"/>
<line fill="none" stroke="#001E39" stroke-width="5" stroke-miterlimit="10" x1="263" y1="384" x2="447.525" y2="384"/>
</svg>
