<?xml version="1.0" encoding="utf-8"?>
<!-- Generator: Adobe Illustrator 15.1.0, SVG Export Plug-In . SVG Version: 6.00 Build 0)  -->
<!DOCTYPE svg PUBLIC "-//W3C//DTD SVG 1.1//EN" "http://www.w3.org/Graphics/SVG/1.1/DTD/svg11.dtd">
<svg version="1.1" id="Layer_1" xmlns:sketch="http://www.bohemiancoding.com/sketch/ns"
	 xmlns="http://www.w3.org/2000/svg" xmlns:xlink="http://www.w3.org/1999/xlink" x="0px" y="0px" width="22px" height="22px"
	 viewBox="0 0 22 22" enable-background="new 0 0 22 22" xml:space="preserve">
<title>editor_document_file_code_format</title>
<desc>Created with Sketch.</desc>
<g id="layer1" transform="translate(0,-952.36218)">
	<path id="path3803"  fill="#001E39" d="M2.184,955.006c-0.333,0.031-0.587,0.312-0.586,0.647
		v2.158v10.986v2.104v0.055c0,0.004,0,0.008,0,0.014c0.002,0.033,0.006,0.066,0.014,0.1c0,0.004,0,0.01,0,0.014
		c0.002,0.012,0.004,0.021,0.006,0.033c0.002,0.012,0.004,0.023,0.007,0.035c0.002,0.002,0.004,0.004,0.006,0.006
		c0.007,0.018,0.013,0.037,0.021,0.053c0,0.002,0,0.006,0,0.008c0.007,0.016,0.017,0.033,0.026,0.047
		c0.005,0.01,0.008,0.018,0.014,0.027c0.006,0.012,0.012,0.023,0.02,0.033c0.001,0.002,0.004,0.004,0.006,0.006
		c0.01,0.016,0.021,0.029,0.033,0.041c0.002,0.002,0.005,0.004,0.007,0.006c0.01,0.016,0.021,0.029,0.034,0.043
		c0.001,0.002,0.003,0.004,0.006,0.006c0.027,0.027,0.056,0.053,0.088,0.074c0.002,0,0.004,0,0.006,0
		c0.013,0.01,0.026,0.02,0.041,0.027c0.004,0.002,0.009,0.006,0.013,0.008c0.005,0,0.009,0.002,0.014,0.004
		c0.015,0.008,0.031,0.016,0.047,0.021c0.003,0,0.008,0,0.013,0c0.015,0.008,0.031,0.016,0.047,0.021c0.004,0,0.01,0,0.013,0
		c0.018,0.006,0.036,0.008,0.055,0.012c0.002,0,0.004,0,0.007,0c0.018,0.004,0.036,0.006,0.054,0.006c0.004,0,0.008,0,0.013,0
		c0.011,0.002,0.022,0.002,0.034,0h2.158h11.323c0.021,0.002,0.045,0.002,0.068,0h2.088c0.293,0.002,0.549-0.189,0.629-0.471
		l2.568-8.997l0.203-0.701c0.1-0.343-0.098-0.703-0.439-0.803c-0.061-0.018-0.125-0.027-0.189-0.026h-2.123v-2.495
		c0-0.357-0.289-0.648-0.648-0.648H9.037v-1.807c0-0.358-0.291-0.647-0.648-0.647H2.245C2.226,955.004,2.205,955.004,2.184,955.006
		L2.184,955.006z M2.892,956.301h4.849v1.808c0,0.357,0.291,0.646,0.647,0.646h8.848v1.848H5.017
		c-0.289,0.002-0.542,0.194-0.62,0.472l-1.504,5.26v-8.523V956.301z M5.509,961.898H17.66c0.146,0.052,0.303,0.052,0.445,0h1.693
		l-2.4,8.409h-1.672H4.403H3.108l0.365-1.281L5.509,961.898L5.509,961.898z"/>
</g>
</svg>
