<?xml version="1.0" encoding="utf-8"?>
<!-- Generator: Adobe Illustrator 15.1.0, SVG Export Plug-In . SVG Version: 6.00 Build 0)  -->
<!DOCTYPE svg PUBLIC "-//W3C//DTD SVG 1.1//EN" "http://www.w3.org/Graphics/SVG/1.1/DTD/svg11.dtd">
<svg version="1.1" id="Layer_1" xmlns:sketch="http://www.bohemiancoding.com/sketch/ns"
	 xmlns="http://www.w3.org/2000/svg" xmlns:xlink="http://www.w3.org/1999/xlink" x="0px" y="0px" width="22px" height="22px"
	 viewBox="0 0 22 22" enable-background="new 0 0 22 22" xml:space="preserve">
<title>editor_document_file_code_format</title>
<desc>Created with Sketch.</desc>
<path fill="#001E39" d="M14.341,0.846H4.096c0,0-0.445,0-0.445,0.449v19.314c0,0.45,0.445,0.45,0.445,0.45h13.81
	c0,0,0.445,0,0.445-0.45V4.888L14.341,0.846z M14.675,2.372l2.157,2.148h-2.157V2.372z M17.433,20.141H4.568V1.765h9.188v2.756
	c0,0.919,0.918,0.919,0.918,0.919h2.758V20.141z"/>
<polygon fill="#001E39" points="9.621,7.973 5.724,11.871 9.621,15.769 10.271,15.119 7.023,11.871 10.271,8.623 "/>
<polygon fill="#001E39" points="12.379,7.973 16.277,11.871 12.379,15.769 11.729,15.119 14.977,11.871 11.729,8.623 "/>
</svg>
