<?xml version="1.0" encoding="utf-8"?>
<!-- Generator: Adobe Illustrator 15.1.0, SVG Export Plug-In . SVG Version: 6.00 Build 0)  -->
<!DOCTYPE svg PUBLIC "-//W3C//DTD SVG 1.1//EN" "http://www.w3.org/Graphics/SVG/1.1/DTD/svg11.dtd">
<svg version="1.1" id="Layer_1" xmlns="http://www.w3.org/2000/svg" xmlns:xlink="http://www.w3.org/1999/xlink" x="0px" y="0px"
	 width="300px" height="300px" viewBox="0 0 300 300" enable-background="new 0 0 300 300" xml:space="preserve">
<line fill="none" stroke="#000000" stroke-width="0.5" stroke-miterlimit="10" x1="270" y1="0" x2="270" y2="300"/>
<line fill="none" stroke="#000000" stroke-width="0.5" stroke-miterlimit="10" x1="240" y1="0" x2="240" y2="300"/>
<line fill="none" stroke="#000000" stroke-width="0.5" stroke-miterlimit="10" x1="210" y1="0" x2="210" y2="300"/>
<line fill="none" stroke="#000000" stroke-width="0.5" stroke-miterlimit="10" x1="180" y1="0" x2="180" y2="300"/>
<line fill="none" stroke="#000000" stroke-width="0.5" stroke-miterlimit="10" x1="150" y1="0" x2="150" y2="300"/>
<line fill="none" stroke="#000000" stroke-width="0.5" stroke-miterlimit="10" x1="120" y1="0" x2="120" y2="300"/>
<line fill="none" stroke="#000000" stroke-width="0.5" stroke-miterlimit="10" x1="90" y1="0" x2="90" y2="300"/>
<line fill="none" stroke="#000000" stroke-width="0.5" stroke-miterlimit="10" x1="60" y1="0" x2="60" y2="300"/>
<line fill="none" stroke="#000000" stroke-width="0.5" stroke-miterlimit="10" x1="30" y1="0" x2="30" y2="300"/>
<line fill="none" stroke="#000000" stroke-width="0.5" stroke-miterlimit="10" x1="0" y1="30" x2="300" y2="30"/>
<line fill="none" stroke="#000000" stroke-width="0.5" stroke-miterlimit="10" x1="0" y1="60" x2="300" y2="60"/>
<line fill="none" stroke="#000000" stroke-width="0.5" stroke-miterlimit="10" x1="0" y1="90" x2="300" y2="90"/>
<line fill="none" stroke="#000000" stroke-width="0.5" stroke-miterlimit="10" x1="0" y1="120" x2="300" y2="120"/>
<line fill="none" stroke="#000000" stroke-width="0.5" stroke-miterlimit="10" x1="0" y1="150" x2="300" y2="150"/>
<line fill="none" stroke="#000000" stroke-width="0.5" stroke-miterlimit="10" x1="0" y1="180" x2="300" y2="180"/>
<line fill="none" stroke="#000000" stroke-width="0.5" stroke-miterlimit="10" x1="0" y1="210" x2="300" y2="210"/>
<line fill="none" stroke="#000000" stroke-width="0.5" stroke-miterlimit="10" x1="0" y1="240" x2="300" y2="240"/>
<line fill="none" stroke="#000000" stroke-width="0.5" stroke-miterlimit="10" x1="0" y1="270" x2="300" y2="270"/>
<g>
	<rect fill="none" stroke="#000000" stroke-width="2" stroke-miterlimit="10" width="300" height="300"/>
</g>
</svg>
