<?xml version="1.0" encoding="utf-8"?>
<!-- Generator: Adobe Illustrator 15.1.0, SVG Export Plug-In . SVG Version: 6.00 Build 0)  -->
<!DOCTYPE svg PUBLIC "-//W3C//DTD SVG 1.1//EN" "http://www.w3.org/Graphics/SVG/1.1/DTD/svg11.dtd">
<svg version="1.1" id="Layer_1" xmlns="http://www.w3.org/2000/svg" xmlns:xlink="http://www.w3.org/1999/xlink" x="0px" y="0px"
	 width="500px" height="199px" viewBox="0 0 500 199" enable-background="new 0 0 500 199" xml:space="preserve">
<rect x="51.372" y="57.637" fill="#FFFFFF" stroke="#000000" stroke-width="2" stroke-miterlimit="10" width="65.04" height="65.041"/>
<rect x="224.058" y="57.638" fill="#FF1B00" stroke="#000000" stroke-width="2" stroke-miterlimit="10" width="65.04" height="65.04"/>
<rect x="137.715" y="57.637" stroke="#000000" stroke-width="2" stroke-miterlimit="10" width="65.04" height="65.041"/>
<rect x="310.401" y="57.637" fill="#18FF00" stroke="#000000" stroke-width="2" stroke-miterlimit="10" width="65.038" height="65.041"/>
<g>
	<path d="M53.977,27.846c0-0.256,0.076-0.458,0.228-0.606s0.368-0.222,0.648-0.222c0.272,0,0.486,0.074,0.642,0.222
		c0.156,0.148,0.234,0.35,0.234,0.606c0,0.256-0.078,0.458-0.234,0.606c-0.156,0.148-0.37,0.222-0.642,0.222
		c-0.28,0-0.496-0.074-0.648-0.222S53.977,28.102,53.977,27.846z M54.145,29.717h1.416v5.844h-1.416V29.717z"/>
	<path d="M56.845,29.729h0.864v-0.684c0-0.6,0.176-1.06,0.528-1.38c0.32-0.288,0.736-0.432,1.248-0.432
		c0.328,0,0.732,0.048,1.212,0.144l-0.276,1.092c-0.224-0.08-0.426-0.12-0.606-0.12c-0.18,0-0.338,0.05-0.474,0.15
		c-0.136,0.1-0.204,0.286-0.204,0.558v0.672h1.068v0.948h-1.068v4.884h-1.428v-4.884h-0.864V29.729z"/>
	<path d="M64.465,29.729l1.176,4.164l1.116-3.84h1.284l1.116,3.852l1.188-4.176h1.416l-1.92,5.832H68.45l-1.08-3.492l-1.056,3.492
		H64.91l-1.932-5.832H64.465z"/>
	<path d="M73.981,30.678c0.4-0.736,0.984-1.104,1.752-1.104c0.768,0,1.333,0.236,1.698,0.708c0.364,0.472,0.546,1.096,0.546,1.872
		v3.408h-1.416v-3.408c0-0.432-0.104-0.758-0.312-0.978c-0.208-0.22-0.5-0.33-0.876-0.33s-0.698,0.168-0.966,0.504
		s-0.41,0.84-0.426,1.512v2.7h-1.416V27.33h1.416V30.678z"/>
	<path d="M79.513,27.846c0-0.256,0.076-0.458,0.228-0.606s0.368-0.222,0.648-0.222c0.272,0,0.486,0.074,0.642,0.222
		c0.156,0.148,0.234,0.35,0.234,0.606c0,0.256-0.078,0.458-0.234,0.606c-0.156,0.148-0.37,0.222-0.642,0.222
		c-0.28,0-0.496-0.074-0.648-0.222S79.513,28.102,79.513,27.846z M79.681,29.717h1.416v5.844h-1.416V29.717z"/>
	<path d="M86.305,35.417c-0.528,0.208-0.944,0.312-1.248,0.312c-0.304,0-0.57-0.036-0.798-0.108c-0.228-0.072-0.43-0.18-0.606-0.324
		c-0.368-0.328-0.552-0.78-0.552-1.356v-3.264h-0.816v-0.948h0.816v-1.536h1.416v1.536h1.584v0.948h-1.584v3.216
		c0,0.48,0.228,0.72,0.684,0.72c0.232,0,0.532-0.063,0.9-0.192L86.305,35.417z"/>
	<path d="M91.794,31.313c0.1,0.336,0.15,0.644,0.15,0.924c0,0.28-0.016,0.532-0.048,0.756h-3.768
		c0.016,0.472,0.132,0.856,0.348,1.152c0.216,0.296,0.544,0.444,0.984,0.444c0.584,0,0.932-0.256,1.044-0.768h1.428
		c-0.096,0.584-0.364,1.044-0.804,1.38c-0.456,0.352-1.012,0.528-1.668,0.528c-0.768,0-1.412-0.28-1.932-0.84
		c-0.536-0.584-0.804-1.332-0.804-2.244c0-0.936,0.268-1.688,0.804-2.256c0.512-0.544,1.156-0.816,1.932-0.816
		c0.808,0,1.436,0.284,1.884,0.852C91.544,30.682,91.694,30.978,91.794,31.313z M89.473,30.702c-0.4,0-0.712,0.13-0.936,0.39
		c-0.224,0.26-0.356,0.594-0.396,1.002h2.484c0-0.632-0.2-1.056-0.6-1.272C89.873,30.742,89.688,30.702,89.473,30.702z"/>
	<path d="M92.862,35.352c-0.156-0.14-0.234-0.328-0.234-0.564s0.092-0.438,0.276-0.606s0.436-0.252,0.756-0.252
		c0.32,0,0.58,0.124,0.78,0.372s0.3,0.552,0.3,0.912c0,0.584-0.264,1.116-0.792,1.596c-0.168,0.152-0.356,0.28-0.564,0.384
		l-1.056-0.528c0.264-0.136,0.498-0.288,0.702-0.456c0.204-0.168,0.337-0.364,0.402-0.588
		C93.208,35.582,93.019,35.492,92.862,35.352z"/>
	<path d="M54.529,47.573c-0.472-0.4-0.708-0.9-0.708-1.5c0-0.632,0.248-1.144,0.744-1.536c0.48-0.376,1.03-0.564,1.65-0.564
		c0.62,0,1.138,0.116,1.554,0.348c0.048-0.456,0.244-0.824,0.588-1.104c0.336-0.28,0.732-0.42,1.188-0.42l-0.072,1.356
		c-0.688,0-1.044,0.228-1.068,0.684c0.296,0.368,0.444,0.744,0.444,1.128c0,0.384-0.068,0.706-0.204,0.966
		c-0.136,0.26-0.32,0.478-0.552,0.654c-0.48,0.384-1.064,0.576-1.752,0.576c-0.392,0-0.748-0.06-1.068-0.18
		c-0.32,0.096-0.48,0.288-0.48,0.576c0,0.36,0.304,0.54,0.912,0.54h1.956c1.328,0,1.992,0.464,1.992,1.392
		c0,0.312-0.078,0.618-0.234,0.918c-0.156,0.3-0.382,0.566-0.678,0.798c-0.656,0.512-1.48,0.768-2.472,0.768
		c-0.96,0-1.74-0.196-2.34-0.588c-0.56-0.376-0.84-0.836-0.84-1.38c0-0.36,0.11-0.646,0.33-0.858c0.22-0.212,0.51-0.346,0.87-0.402
		c-0.472-0.288-0.708-0.644-0.708-1.068c0-0.28,0.088-0.514,0.264-0.702C54.021,47.788,54.249,47.653,54.529,47.573z M55.609,50.093
		c-0.752,0.032-1.128,0.316-1.128,0.852c0,0.272,0.158,0.49,0.474,0.654c0.316,0.164,0.69,0.246,1.122,0.246s0.77-0.036,1.014-0.108
		c0.244-0.072,0.45-0.168,0.618-0.288c0.36-0.24,0.54-0.528,0.54-0.864c0-0.144-0.05-0.262-0.15-0.354
		c-0.1-0.092-0.246-0.138-0.438-0.138H55.609z M57.445,46.056c0-0.324-0.09-0.588-0.27-0.792c-0.18-0.204-0.454-0.306-0.822-0.306
		c-0.368,0-0.648,0.102-0.84,0.306c-0.192,0.204-0.288,0.468-0.288,0.792c0,0.324,0.096,0.59,0.288,0.798s0.472,0.312,0.84,0.312
		c0.368,0,0.642-0.104,0.822-0.312C57.355,46.646,57.445,46.379,57.445,46.056z"/>
	<path d="M62.821,43.974c0.392,0,0.76,0.062,1.104,0.186c0.344,0.124,0.64,0.314,0.888,0.57c0.552,0.56,0.828,1.336,0.828,2.328
		c0,0.976-0.276,1.744-0.828,2.304c-0.496,0.512-1.16,0.768-1.992,0.768c-0.833,0-1.504-0.256-2.016-0.768
		c-0.552-0.552-0.828-1.32-0.828-2.304c0-1,0.276-1.776,0.828-2.328C61.309,44.226,61.981,43.974,62.821,43.974z M64.225,47.045
		c0-0.616-0.12-1.078-0.36-1.386c-0.24-0.308-0.574-0.462-1.002-0.462c-0.428,0-0.778,0.154-1.05,0.462
		c-0.272,0.308-0.408,0.77-0.408,1.386c0,0.616,0.122,1.078,0.366,1.386c0.244,0.308,0.578,0.462,1.002,0.462
		c0.424,0,0.772-0.154,1.044-0.462C64.089,48.124,64.225,47.662,64.225,47.045z"/>
	<path d="M72.685,49.817c-0.528,0.208-0.944,0.312-1.248,0.312c-0.304,0-0.57-0.036-0.798-0.108c-0.228-0.072-0.43-0.18-0.606-0.324
		c-0.368-0.328-0.552-0.78-0.552-1.356v-3.264h-0.816v-0.948h0.816v-1.536h1.416v1.536h1.584v0.948h-1.584v3.216
		c0,0.48,0.228,0.72,0.684,0.72c0.232,0,0.532-0.063,0.9-0.192L72.685,49.817z"/>
	<path d="M75.949,43.974c0.392,0,0.76,0.062,1.104,0.186c0.344,0.124,0.64,0.314,0.888,0.57c0.552,0.56,0.828,1.336,0.828,2.328
		c0,0.976-0.276,1.744-0.828,2.304c-0.496,0.512-1.16,0.768-1.992,0.768c-0.833,0-1.504-0.256-2.016-0.768
		c-0.552-0.552-0.828-1.32-0.828-2.304c0-1,0.276-1.776,0.828-2.328C74.437,44.226,75.108,43.974,75.949,43.974z M77.353,47.045
		c0-0.616-0.12-1.078-0.36-1.386c-0.24-0.308-0.574-0.462-1.002-0.462c-0.428,0-0.778,0.154-1.05,0.462
		c-0.272,0.308-0.408,0.77-0.408,1.386c0,0.616,0.122,1.078,0.366,1.386c0.244,0.308,0.578,0.462,1.002,0.462
		c0.424,0,0.772-0.154,1.044-0.462C77.216,48.124,77.353,47.662,77.353,47.045z"/>
	<path d="M87.426,44.813c0.492,0.56,0.738,1.296,0.738,2.208s-0.26,1.664-0.78,2.256c-0.504,0.568-1.132,0.852-1.884,0.852
		c-0.36,0-0.69-0.096-0.99-0.288c-0.3-0.192-0.538-0.488-0.714-0.888l-0.348,1.008h-0.924v-8.232h1.416v3.132
		c0.368-0.592,0.918-0.888,1.65-0.888S86.934,44.253,87.426,44.813z M83.94,46.686v0.768c0.016,0.408,0.164,0.744,0.444,1.008
		c0.264,0.256,0.586,0.384,0.966,0.384s0.706-0.166,0.978-0.498s0.408-0.77,0.408-1.314c0-0.544-0.134-0.978-0.402-1.302
		s-0.602-0.486-1.002-0.486s-0.732,0.132-0.996,0.396C84.072,45.905,83.94,46.253,83.94,46.686z"/>
	<path d="M89.413,41.729h1.416v8.232h-1.416V41.729z"/>
	<path d="M94.5,46.553c0.464,0,1,0.076,1.608,0.228v-0.576c0-0.408-0.082-0.71-0.246-0.906c-0.164-0.196-0.432-0.294-0.804-0.294
		c-0.372,0-0.658,0.074-0.858,0.222c-0.2,0.148-0.3,0.358-0.3,0.63h-1.548c0-0.664,0.234-1.144,0.702-1.44
		c0.468-0.296,1.122-0.444,1.962-0.444c1.2,0,1.976,0.42,2.328,1.26c0.12,0.288,0.18,0.628,0.18,1.02v3.708h-1.236l-0.108-0.78
		c-0.376,0.632-0.952,0.948-1.728,0.948c-0.752,0-1.336-0.184-1.752-0.552c-0.384-0.352-0.576-0.798-0.576-1.338
		s0.212-0.956,0.636-1.248C93.184,46.7,93.764,46.553,94.5,46.553z M96.108,47.682c-0.472-0.128-0.912-0.192-1.32-0.192
		c-0.768,0-1.152,0.256-1.152,0.768c0,0.216,0.088,0.402,0.264,0.558c0.176,0.156,0.458,0.234,0.846,0.234
		c0.388,0,0.708-0.13,0.96-0.39C95.958,48.399,96.092,48.074,96.108,47.682z"/>
	<path d="M101.328,43.974c0.368,0,0.698,0.062,0.99,0.186c0.292,0.124,0.538,0.286,0.738,0.486c0.4,0.384,0.636,0.868,0.708,1.452
		l-1.428,0.036c-0.064-0.256-0.182-0.468-0.354-0.636c-0.172-0.168-0.37-0.252-0.594-0.252s-0.416,0.034-0.576,0.102
		s-0.3,0.174-0.42,0.318c-0.272,0.336-0.408,0.8-0.408,1.392c0,0.592,0.128,1.038,0.384,1.338c0.256,0.3,0.566,0.45,0.93,0.45
		c0.364,0,0.628-0.085,0.792-0.258c0.164-0.172,0.246-0.406,0.246-0.702h1.428c0,0.64-0.212,1.172-0.636,1.596
		c-0.432,0.432-1.036,0.648-1.812,0.648c-0.768,0-1.412-0.28-1.932-0.84c-0.552-0.6-0.828-1.348-0.828-2.244
		c0-0.944,0.276-1.7,0.828-2.268C99.904,44.242,100.552,43.974,101.328,43.974z"/>
	<path d="M107.052,47.117l-0.648,0.54v2.304h-1.416v-8.232h1.416v4.452l2.304-2.052h1.92l-2.58,2.16l2.724,3.672h-1.728
		L107.052,47.117z"/>
</g>
<rect x="396.743" y="57.637" fill="#1F3AFF" stroke="#000000" stroke-width="2" stroke-miterlimit="10" width="65.04" height="65.041"/>
<g>
	<path d="M140.32,27.846c0-0.256,0.076-0.458,0.228-0.606s0.368-0.222,0.648-0.222c0.272,0,0.486,0.074,0.642,0.222
		c0.156,0.148,0.234,0.35,0.234,0.606c0,0.256-0.078,0.458-0.234,0.606c-0.156,0.148-0.37,0.222-0.642,0.222
		c-0.28,0-0.496-0.074-0.648-0.222S140.32,28.102,140.32,27.846z M140.488,29.717h1.416v5.844h-1.416V29.717z"/>
	<path d="M143.188,29.729h0.864v-0.684c0-0.6,0.176-1.06,0.528-1.38c0.32-0.288,0.736-0.432,1.248-0.432
		c0.328,0,0.732,0.048,1.212,0.144l-0.276,1.092c-0.224-0.08-0.426-0.12-0.606-0.12c-0.18,0-0.338,0.05-0.474,0.15
		c-0.136,0.1-0.204,0.286-0.204,0.558v0.672h1.068v0.948h-1.068v4.884h-1.428v-4.884h-0.864V29.729z"/>
	<path d="M155.194,30.414c0.492,0.56,0.738,1.296,0.738,2.208s-0.26,1.664-0.78,2.256c-0.504,0.568-1.132,0.852-1.884,0.852
		c-0.36,0-0.69-0.096-0.99-0.288c-0.3-0.192-0.538-0.488-0.714-0.888l-0.348,1.008h-0.924V27.33h1.416v3.132
		c0.368-0.592,0.918-0.888,1.65-0.888S154.702,29.854,155.194,30.414z M151.708,32.286v0.768c0.016,0.408,0.164,0.744,0.444,1.008
		c0.264,0.256,0.586,0.384,0.966,0.384s0.706-0.166,0.978-0.498s0.408-0.77,0.408-1.314c0-0.544-0.134-0.978-0.402-1.302
		s-0.602-0.486-1.002-0.486s-0.732,0.132-0.996,0.396C151.84,31.505,151.708,31.854,151.708,32.286z"/>
	<path d="M157.181,27.33h1.416v8.232h-1.416V27.33z"/>
	<path d="M162.269,32.153c0.464,0,1,0.076,1.608,0.228v-0.576c0-0.408-0.082-0.71-0.246-0.906c-0.164-0.196-0.432-0.294-0.804-0.294
		c-0.372,0-0.658,0.074-0.858,0.222c-0.2,0.148-0.3,0.358-0.3,0.63h-1.548c0-0.664,0.234-1.144,0.702-1.44
		c0.468-0.296,1.122-0.444,1.962-0.444c1.2,0,1.976,0.42,2.328,1.26c0.12,0.288,0.18,0.628,0.18,1.02v3.708h-1.236l-0.108-0.78
		c-0.376,0.632-0.952,0.948-1.728,0.948c-0.752,0-1.336-0.184-1.752-0.552c-0.384-0.352-0.576-0.798-0.576-1.338
		s0.212-0.956,0.636-1.248C160.952,32.3,161.532,32.153,162.269,32.153z M163.876,33.282c-0.472-0.128-0.912-0.192-1.32-0.192
		c-0.768,0-1.152,0.256-1.152,0.768c0,0.216,0.088,0.402,0.264,0.558c0.176,0.156,0.458,0.234,0.846,0.234
		c0.388,0,0.708-0.13,0.96-0.39C163.727,34,163.86,33.674,163.876,33.282z"/>
	<path d="M169.096,29.574c0.368,0,0.698,0.062,0.99,0.186c0.292,0.124,0.538,0.286,0.738,0.486c0.4,0.384,0.636,0.868,0.708,1.452
		l-1.428,0.036c-0.064-0.256-0.182-0.468-0.354-0.636c-0.172-0.168-0.37-0.252-0.594-0.252s-0.416,0.034-0.576,0.102
		s-0.3,0.174-0.42,0.318c-0.272,0.336-0.408,0.8-0.408,1.392c0,0.592,0.128,1.038,0.384,1.338c0.256,0.3,0.566,0.45,0.93,0.45
		c0.364,0,0.628-0.085,0.792-0.258c0.164-0.172,0.246-0.406,0.246-0.702h1.428c0,0.64-0.212,1.172-0.636,1.596
		c-0.432,0.432-1.036,0.648-1.812,0.648c-0.768,0-1.412-0.28-1.932-0.84c-0.552-0.6-0.828-1.348-0.828-2.244
		c0-0.944,0.276-1.7,0.828-2.268C167.672,29.842,168.32,29.574,169.096,29.574z"/>
	<path d="M174.82,32.717l-0.648,0.54v2.304h-1.416V27.33h1.416v4.452l2.304-2.052h1.92l-2.58,2.16l2.724,3.672h-1.728L174.82,32.717
		z"/>
	<path d="M178.882,35.352c-0.156-0.14-0.234-0.328-0.234-0.564s0.092-0.438,0.276-0.606s0.436-0.252,0.756-0.252
		c0.32,0,0.58,0.124,0.78,0.372s0.3,0.552,0.3,0.912c0,0.584-0.264,1.116-0.792,1.596c-0.168,0.152-0.356,0.28-0.564,0.384
		l-1.056-0.528c0.264-0.136,0.498-0.288,0.702-0.456c0.204-0.168,0.337-0.364,0.402-0.588
		C179.228,35.582,179.038,35.492,178.882,35.352z"/>
	<path d="M140.872,47.573c-0.472-0.4-0.708-0.9-0.708-1.5c0-0.632,0.248-1.144,0.744-1.536c0.48-0.376,1.03-0.564,1.65-0.564
		c0.62,0,1.138,0.116,1.554,0.348c0.048-0.456,0.244-0.824,0.588-1.104c0.336-0.28,0.732-0.42,1.188-0.42l-0.072,1.356
		c-0.688,0-1.044,0.228-1.068,0.684c0.296,0.368,0.444,0.744,0.444,1.128c0,0.384-0.068,0.706-0.204,0.966
		c-0.136,0.26-0.32,0.478-0.552,0.654c-0.48,0.384-1.064,0.576-1.752,0.576c-0.392,0-0.748-0.06-1.068-0.18
		c-0.32,0.096-0.48,0.288-0.48,0.576c0,0.36,0.304,0.54,0.912,0.54h1.956c1.328,0,1.992,0.464,1.992,1.392
		c0,0.312-0.078,0.618-0.234,0.918c-0.156,0.3-0.382,0.566-0.678,0.798c-0.656,0.512-1.48,0.768-2.472,0.768
		c-0.96,0-1.74-0.196-2.34-0.588c-0.56-0.376-0.84-0.836-0.84-1.38c0-0.36,0.11-0.646,0.33-0.858c0.22-0.212,0.51-0.346,0.87-0.402
		c-0.472-0.288-0.708-0.644-0.708-1.068c0-0.28,0.088-0.514,0.264-0.702C140.364,47.788,140.592,47.653,140.872,47.573z
		 M141.952,50.093c-0.752,0.032-1.128,0.316-1.128,0.852c0,0.272,0.158,0.49,0.474,0.654c0.316,0.164,0.69,0.246,1.122,0.246
		s0.77-0.036,1.014-0.108c0.244-0.072,0.45-0.168,0.618-0.288c0.36-0.24,0.54-0.528,0.54-0.864c0-0.144-0.05-0.262-0.15-0.354
		c-0.1-0.092-0.246-0.138-0.438-0.138H141.952z M143.788,46.056c0-0.324-0.09-0.588-0.27-0.792c-0.18-0.204-0.454-0.306-0.822-0.306
		c-0.368,0-0.648,0.102-0.84,0.306c-0.192,0.204-0.288,0.468-0.288,0.792c0,0.324,0.096,0.59,0.288,0.798s0.472,0.312,0.84,0.312
		c0.368,0,0.642-0.104,0.822-0.312C143.698,46.646,143.788,46.379,143.788,46.056z"/>
	<path d="M149.164,43.974c0.392,0,0.76,0.062,1.104,0.186c0.344,0.124,0.64,0.314,0.888,0.57c0.552,0.56,0.828,1.336,0.828,2.328
		c0,0.976-0.276,1.744-0.828,2.304c-0.496,0.512-1.16,0.768-1.992,0.768c-0.833,0-1.504-0.256-2.016-0.768
		c-0.552-0.552-0.828-1.32-0.828-2.304c0-1,0.276-1.776,0.828-2.328C147.652,44.226,148.324,43.974,149.164,43.974z M150.568,47.045
		c0-0.616-0.12-1.078-0.36-1.386c-0.24-0.308-0.574-0.462-1.002-0.462c-0.428,0-0.778,0.154-1.05,0.462
		c-0.272,0.308-0.408,0.77-0.408,1.386c0,0.616,0.122,1.078,0.366,1.386c0.244,0.308,0.578,0.462,1.002,0.462
		c0.424,0,0.772-0.154,1.044-0.462C150.432,48.124,150.568,47.662,150.568,47.045z"/>
	<path d="M159.027,49.817c-0.528,0.208-0.944,0.312-1.248,0.312c-0.304,0-0.57-0.036-0.798-0.108
		c-0.228-0.072-0.43-0.18-0.606-0.324c-0.368-0.328-0.552-0.78-0.552-1.356v-3.264h-0.816v-0.948h0.816v-1.536h1.416v1.536h1.584
		v0.948h-1.584v3.216c0,0.48,0.228,0.72,0.684,0.72c0.232,0,0.532-0.063,0.9-0.192L159.027,49.817z"/>
	<path d="M162.292,43.974c0.392,0,0.76,0.062,1.104,0.186c0.344,0.124,0.64,0.314,0.888,0.57c0.552,0.56,0.828,1.336,0.828,2.328
		c0,0.976-0.276,1.744-0.828,2.304c-0.496,0.512-1.16,0.768-1.992,0.768c-0.833,0-1.504-0.256-2.016-0.768
		c-0.552-0.552-0.828-1.32-0.828-2.304c0-1,0.276-1.776,0.828-2.328C160.779,44.226,161.451,43.974,162.292,43.974z M163.695,47.045
		c0-0.616-0.12-1.078-0.36-1.386c-0.24-0.308-0.574-0.462-1.002-0.462c-0.428,0-0.778,0.154-1.05,0.462
		c-0.272,0.308-0.408,0.77-0.408,1.386c0,0.616,0.122,1.078,0.366,1.386c0.244,0.308,0.578,0.462,1.002,0.462
		c0.424,0,0.772-0.154,1.044-0.462C163.559,48.124,163.695,47.662,163.695,47.045z"/>
	<path d="M170.283,45.281c0.352-0.84,0.88-1.26,1.584-1.26c0.136,0,0.308,0.028,0.516,0.084l-0.024,1.416
		c-0.224-0.048-0.444-0.072-0.66-0.072c-0.944,0-1.416,0.652-1.416,1.956v2.556h-1.416v-5.844h1.416V45.281z"/>
	<path d="M177.896,45.713c0.1,0.336,0.15,0.644,0.15,0.924c0,0.28-0.016,0.532-0.048,0.756h-3.768
		c0.016,0.472,0.132,0.856,0.348,1.152c0.216,0.296,0.544,0.444,0.984,0.444c0.584,0,0.932-0.256,1.044-0.768h1.428
		c-0.096,0.584-0.364,1.044-0.804,1.38c-0.456,0.352-1.012,0.528-1.668,0.528c-0.768,0-1.412-0.28-1.932-0.84
		c-0.536-0.584-0.804-1.332-0.804-2.244c0-0.936,0.268-1.688,0.804-2.256c0.512-0.544,1.156-0.816,1.932-0.816
		c0.808,0,1.436,0.284,1.884,0.852C177.646,45.082,177.796,45.377,177.896,45.713z M175.575,45.102c-0.4,0-0.712,0.13-0.936,0.39
		c-0.224,0.26-0.356,0.594-0.396,1.002h2.484c0-0.632-0.2-1.056-0.6-1.272C175.975,45.142,175.791,45.102,175.575,45.102z"/>
	<path d="M183.062,49.062c-0.36,0.712-0.912,1.068-1.656,1.068c-0.744,0-1.368-0.284-1.872-0.852c-0.52-0.592-0.78-1.344-0.78-2.256
		s0.248-1.652,0.744-2.22c0.488-0.552,1.096-0.828,1.824-0.828c0.728,0,1.276,0.292,1.644,0.876v-3.12h1.428v8.232h-1.164
		L183.062,49.062z M181.586,45.246c-0.4,0-0.734,0.162-1.002,0.486s-0.402,0.758-0.402,1.302c0,0.544,0.136,0.982,0.408,1.314
		c0.271,0.332,0.616,0.498,1.032,0.498c0.344,0,0.652-0.136,0.924-0.408c0.28-0.28,0.42-0.632,0.42-1.056v-0.756
		c-0.016-0.416-0.156-0.756-0.42-1.02C182.307,45.365,181.986,45.246,181.586,45.246z"/>
</g>
<g>
	<path d="M226.663,27.846c0-0.256,0.076-0.458,0.228-0.606s0.368-0.222,0.648-0.222c0.272,0,0.486,0.074,0.642,0.222
		c0.156,0.148,0.234,0.35,0.234,0.606c0,0.256-0.078,0.458-0.234,0.606c-0.156,0.148-0.37,0.222-0.642,0.222
		c-0.28,0-0.496-0.074-0.648-0.222S226.663,28.102,226.663,27.846z M226.831,29.717h1.416v5.844h-1.416V29.717z"/>
	<path d="M229.531,29.729h0.864v-0.684c0-0.6,0.176-1.06,0.528-1.38c0.32-0.288,0.736-0.432,1.248-0.432
		c0.328,0,0.732,0.048,1.212,0.144l-0.276,1.092c-0.224-0.08-0.426-0.12-0.606-0.12c-0.18,0-0.338,0.05-0.474,0.15
		c-0.136,0.1-0.204,0.286-0.204,0.558v0.672h1.068v0.948h-1.068v4.884h-1.428v-4.884h-0.864V29.729z"/>
	<path d="M238.051,30.881c0.352-0.84,0.88-1.26,1.584-1.26c0.136,0,0.308,0.028,0.516,0.084l-0.024,1.416
		c-0.224-0.048-0.444-0.072-0.66-0.072c-0.944,0-1.416,0.652-1.416,1.956v2.556h-1.416v-5.844h1.416V30.881z"/>
	<path d="M245.665,31.313c0.1,0.336,0.15,0.644,0.15,0.924c0,0.28-0.016,0.532-0.048,0.756h-3.768
		c0.016,0.472,0.132,0.856,0.348,1.152c0.216,0.296,0.544,0.444,0.984,0.444c0.584,0,0.932-0.256,1.044-0.768h1.428
		c-0.096,0.584-0.364,1.044-0.804,1.38c-0.456,0.352-1.012,0.528-1.668,0.528c-0.768,0-1.412-0.28-1.932-0.84
		c-0.536-0.584-0.804-1.332-0.804-2.244c0-0.936,0.268-1.688,0.804-2.256c0.512-0.544,1.156-0.816,1.932-0.816
		c0.808,0,1.436,0.284,1.884,0.852C245.415,30.682,245.564,30.978,245.665,31.313z M243.343,30.702c-0.4,0-0.712,0.13-0.936,0.39
		c-0.224,0.26-0.356,0.594-0.396,1.002h2.484c0-0.632-0.2-1.056-0.6-1.272C243.743,30.742,243.559,30.702,243.343,30.702z"/>
	<path d="M250.831,34.662c-0.36,0.712-0.912,1.068-1.656,1.068c-0.744,0-1.368-0.284-1.872-0.852c-0.52-0.592-0.78-1.344-0.78-2.256
		s0.248-1.652,0.744-2.22c0.488-0.552,1.096-0.828,1.824-0.828c0.728,0,1.276,0.292,1.644,0.876v-3.12h1.427v8.232h-1.164
		L250.831,34.662z M249.354,30.846c-0.4,0-0.734,0.162-1.002,0.486s-0.402,0.758-0.402,1.302c0,0.544,0.136,0.982,0.408,1.314
		c0.271,0.332,0.616,0.498,1.032,0.498c0.344,0,0.652-0.136,0.924-0.408c0.28-0.28,0.42-0.632,0.42-1.056v-0.756
		c-0.016-0.416-0.156-0.756-0.42-1.02C250.075,30.965,249.754,30.846,249.354,30.846z"/>
	<path d="M253.621,35.352c-0.156-0.14-0.234-0.328-0.234-0.564s0.092-0.438,0.275-0.606c0.185-0.168,0.437-0.252,0.757-0.252
		c0.319,0,0.579,0.124,0.78,0.372c0.199,0.248,0.3,0.552,0.3,0.912c0,0.584-0.265,1.116-0.792,1.596
		c-0.168,0.152-0.356,0.28-0.564,0.384l-1.056-0.528c0.264-0.136,0.498-0.288,0.702-0.456c0.203-0.168,0.338-0.364,0.402-0.588
		C253.967,35.582,253.777,35.492,253.621,35.352z"/>
	<path d="M227.215,47.573c-0.472-0.4-0.708-0.9-0.708-1.5c0-0.632,0.248-1.144,0.744-1.536c0.48-0.376,1.03-0.564,1.65-0.564
		c0.62,0,1.138,0.116,1.554,0.348c0.048-0.456,0.244-0.824,0.588-1.104c0.336-0.28,0.732-0.42,1.188-0.42l-0.072,1.356
		c-0.688,0-1.044,0.228-1.068,0.684c0.296,0.368,0.444,0.744,0.444,1.128c0,0.384-0.068,0.706-0.204,0.966
		c-0.136,0.26-0.32,0.478-0.552,0.654c-0.48,0.384-1.064,0.576-1.752,0.576c-0.392,0-0.748-0.06-1.068-0.18
		c-0.32,0.096-0.48,0.288-0.48,0.576c0,0.36,0.304,0.54,0.912,0.54h1.956c1.328,0,1.992,0.464,1.992,1.392
		c0,0.312-0.078,0.618-0.234,0.918c-0.156,0.3-0.382,0.566-0.678,0.798c-0.656,0.512-1.48,0.768-2.472,0.768
		c-0.96,0-1.74-0.196-2.34-0.588c-0.56-0.376-0.84-0.836-0.84-1.38c0-0.36,0.11-0.646,0.33-0.858c0.22-0.212,0.51-0.346,0.87-0.402
		c-0.472-0.288-0.708-0.644-0.708-1.068c0-0.28,0.088-0.514,0.264-0.702C226.707,47.788,226.935,47.653,227.215,47.573z
		 M228.295,50.093c-0.752,0.032-1.128,0.316-1.128,0.852c0,0.272,0.158,0.49,0.474,0.654c0.316,0.164,0.69,0.246,1.122,0.246
		s0.77-0.036,1.014-0.108c0.244-0.072,0.45-0.168,0.618-0.288c0.36-0.24,0.54-0.528,0.54-0.864c0-0.144-0.05-0.262-0.15-0.354
		c-0.1-0.092-0.246-0.138-0.438-0.138H228.295z M230.131,46.056c0-0.324-0.09-0.588-0.27-0.792c-0.18-0.204-0.454-0.306-0.822-0.306
		c-0.368,0-0.648,0.102-0.84,0.306c-0.192,0.204-0.288,0.468-0.288,0.792c0,0.324,0.096,0.59,0.288,0.798s0.472,0.312,0.84,0.312
		c0.368,0,0.642-0.104,0.822-0.312C230.041,46.646,230.131,46.379,230.131,46.056z"/>
	<path d="M235.507,43.974c0.392,0,0.76,0.062,1.104,0.186c0.344,0.124,0.64,0.314,0.888,0.57c0.552,0.56,0.828,1.336,0.828,2.328
		c0,0.976-0.276,1.744-0.828,2.304c-0.496,0.512-1.16,0.768-1.992,0.768c-0.833,0-1.504-0.256-2.016-0.768
		c-0.552-0.552-0.828-1.32-0.828-2.304c0-1,0.276-1.776,0.828-2.328C233.995,44.226,234.667,43.974,235.507,43.974z M236.911,47.045
		c0-0.616-0.12-1.078-0.36-1.386c-0.24-0.308-0.574-0.462-1.002-0.462c-0.428,0-0.778,0.154-1.05,0.462
		c-0.272,0.308-0.408,0.77-0.408,1.386c0,0.616,0.122,1.078,0.366,1.386c0.244,0.308,0.578,0.462,1.002,0.462
		c0.424,0,0.772-0.154,1.044-0.462C236.774,48.124,236.911,47.662,236.911,47.045z"/>
	<path d="M245.37,49.817c-0.528,0.208-0.944,0.312-1.248,0.312c-0.304,0-0.57-0.036-0.798-0.108c-0.228-0.072-0.43-0.18-0.606-0.324
		c-0.368-0.328-0.552-0.78-0.552-1.356v-3.264h-0.816v-0.948h0.816v-1.536h1.416v1.536h1.584v0.948h-1.584v3.216
		c0,0.48,0.228,0.72,0.684,0.72c0.232,0,0.532-0.063,0.9-0.192L245.37,49.817z"/>
	<path d="M248.634,43.974c0.392,0,0.76,0.062,1.104,0.186c0.344,0.124,0.64,0.314,0.888,0.57c0.552,0.56,0.828,1.336,0.828,2.328
		c0,0.976-0.276,1.744-0.828,2.304c-0.496,0.512-1.16,0.768-1.992,0.768c-0.833,0-1.504-0.256-2.016-0.768
		c-0.552-0.552-0.828-1.32-0.828-2.304c0-1,0.276-1.776,0.828-2.328C247.122,44.226,247.794,43.974,248.634,43.974z M250.038,47.045
		c0-0.616-0.12-1.078-0.36-1.386c-0.24-0.308-0.574-0.462-1.002-0.462c-0.428,0-0.778,0.154-1.05,0.462
		c-0.272,0.308-0.408,0.77-0.408,1.386c0,0.616,0.122,1.078,0.366,1.386c0.244,0.308,0.578,0.462,1.002,0.462
		c0.424,0,0.772-0.154,1.044-0.462C249.902,48.124,250.038,47.662,250.038,47.045z"/>
	<path d="M255.714,47.573c-0.472-0.4-0.708-0.9-0.708-1.5c0-0.632,0.248-1.144,0.744-1.536c0.48-0.376,1.029-0.564,1.65-0.564
		c0.619,0,1.137,0.116,1.553,0.348c0.049-0.456,0.244-0.824,0.589-1.104c0.336-0.28,0.731-0.42,1.188-0.42l-0.072,1.356
		c-0.688,0-1.045,0.228-1.068,0.684c0.296,0.368,0.443,0.744,0.443,1.128c0,0.384-0.067,0.706-0.203,0.966
		c-0.137,0.26-0.32,0.478-0.553,0.654c-0.479,0.384-1.063,0.576-1.752,0.576c-0.392,0-0.748-0.06-1.068-0.18
		c-0.319,0.096-0.479,0.288-0.479,0.576c0,0.36,0.304,0.54,0.912,0.54h1.956c1.328,0,1.992,0.464,1.992,1.392
		c0,0.312-0.078,0.618-0.234,0.918c-0.156,0.3-0.382,0.566-0.678,0.798c-0.656,0.512-1.48,0.768-2.473,0.768
		c-0.959,0-1.739-0.196-2.34-0.588c-0.56-0.376-0.84-0.836-0.84-1.38c0-0.36,0.11-0.646,0.33-0.858
		c0.221-0.212,0.51-0.346,0.87-0.402c-0.472-0.288-0.708-0.644-0.708-1.068c0-0.28,0.088-0.514,0.264-0.702
		S255.434,47.653,255.714,47.573z M256.794,50.093c-0.753,0.032-1.128,0.316-1.128,0.852c0,0.272,0.158,0.49,0.474,0.654
		c0.315,0.164,0.69,0.246,1.122,0.246s0.77-0.036,1.014-0.108c0.244-0.072,0.45-0.168,0.618-0.288c0.36-0.24,0.54-0.528,0.54-0.864
		c0-0.144-0.05-0.262-0.15-0.354c-0.1-0.092-0.246-0.138-0.438-0.138H256.794z M258.63,46.056c0-0.324-0.091-0.588-0.271-0.792
		c-0.18-0.204-0.453-0.306-0.822-0.306c-0.367,0-0.647,0.102-0.84,0.306c-0.191,0.204-0.287,0.468-0.287,0.792
		c0,0.324,0.096,0.59,0.287,0.798c0.192,0.208,0.473,0.312,0.84,0.312c0.369,0,0.643-0.104,0.822-0.312S258.63,46.379,258.63,46.056
		z"/>
	<path d="M263.13,45.281c0.352-0.84,0.88-1.26,1.584-1.26c0.136,0,0.308,0.028,0.516,0.084l-0.024,1.416
		c-0.224-0.048-0.443-0.072-0.659-0.072c-0.944,0-1.416,0.652-1.416,1.956v2.556h-1.416v-5.844h1.416V45.281z"/>
	<path d="M270.743,45.713c0.101,0.336,0.15,0.644,0.15,0.924c0,0.28-0.017,0.532-0.048,0.756h-3.769
		c0.017,0.472,0.132,0.856,0.349,1.152c0.216,0.296,0.543,0.444,0.983,0.444c0.584,0,0.933-0.256,1.044-0.768h1.428
		c-0.096,0.584-0.363,1.044-0.804,1.38c-0.456,0.352-1.012,0.528-1.668,0.528c-0.768,0-1.412-0.28-1.932-0.84
		c-0.536-0.584-0.804-1.332-0.804-2.244c0-0.936,0.268-1.688,0.804-2.256c0.512-0.544,1.155-0.816,1.932-0.816
		c0.808,0,1.437,0.284,1.884,0.852C270.493,45.082,270.643,45.377,270.743,45.713z M268.422,45.102c-0.4,0-0.713,0.13-0.937,0.39
		c-0.224,0.26-0.356,0.594-0.396,1.002h2.483c0-0.632-0.2-1.056-0.601-1.272C268.821,45.142,268.637,45.102,268.422,45.102z"/>
	<path d="M276.623,45.713c0.1,0.336,0.15,0.644,0.15,0.924c0,0.28-0.016,0.532-0.049,0.756h-3.768
		c0.016,0.472,0.133,0.856,0.348,1.152c0.217,0.296,0.545,0.444,0.984,0.444c0.584,0,0.932-0.256,1.045-0.768h1.428
		c-0.097,0.584-0.365,1.044-0.805,1.38c-0.455,0.352-1.012,0.528-1.668,0.528c-0.768,0-1.412-0.28-1.932-0.84
		c-0.536-0.584-0.805-1.332-0.805-2.244c0-0.936,0.269-1.688,0.805-2.256c0.512-0.544,1.156-0.816,1.932-0.816
		c0.809,0,1.436,0.284,1.885,0.852C276.373,45.082,276.523,45.377,276.623,45.713z M274.301,45.102c-0.399,0-0.711,0.13-0.936,0.39
		c-0.225,0.26-0.355,0.594-0.396,1.002h2.484c0-0.632-0.199-1.056-0.6-1.272C274.701,45.142,274.518,45.102,274.301,45.102z"/>
	<path d="M279.377,45.137c0.385-0.776,1-1.164,1.848-1.164c0.721,0,1.262,0.236,1.627,0.708c0.363,0.472,0.545,1.096,0.545,1.872
		v3.408h-1.416v-3.408c0-0.432-0.104-0.758-0.312-0.978c-0.208-0.22-0.5-0.33-0.876-0.33s-0.697,0.168-0.966,0.504
		s-0.41,0.84-0.426,1.512v2.7h-1.416v-5.832h1.235L279.377,45.137z"/>
</g>
<g>
	<path d="M313.006,27.846c0-0.256,0.076-0.458,0.229-0.606c0.151-0.148,0.367-0.222,0.647-0.222c0.272,0,0.486,0.074,0.642,0.222
		c0.156,0.148,0.234,0.35,0.234,0.606c0,0.256-0.078,0.458-0.234,0.606c-0.155,0.148-0.369,0.222-0.642,0.222
		c-0.28,0-0.496-0.074-0.647-0.222C313.082,28.304,313.006,28.102,313.006,27.846z M313.174,29.717h1.416v5.844h-1.416V29.717z"/>
	<path d="M315.874,29.729h0.864v-0.684c0-0.6,0.176-1.06,0.527-1.38c0.32-0.288,0.736-0.432,1.248-0.432
		c0.328,0,0.732,0.048,1.213,0.144l-0.276,1.092c-0.224-0.08-0.427-0.12-0.606-0.12s-0.338,0.05-0.474,0.15
		s-0.204,0.286-0.204,0.558v0.672h1.068v0.948h-1.068v4.884h-1.428v-4.884h-0.864V29.729z"/>
	<path d="M323.482,33.173c-0.473-0.4-0.708-0.9-0.708-1.5c0-0.632,0.247-1.144,0.743-1.536c0.48-0.376,1.031-0.564,1.65-0.564
		c0.62,0,1.139,0.116,1.555,0.348c0.048-0.456,0.244-0.824,0.588-1.104c0.336-0.28,0.732-0.42,1.188-0.42l-0.072,1.356
		c-0.688,0-1.043,0.228-1.067,0.684c0.296,0.368,0.444,0.744,0.444,1.128c0,0.384-0.068,0.706-0.205,0.966
		c-0.135,0.26-0.319,0.478-0.551,0.654c-0.48,0.384-1.064,0.576-1.752,0.576c-0.393,0-0.748-0.06-1.068-0.18
		c-0.32,0.096-0.48,0.288-0.48,0.576c0,0.36,0.305,0.54,0.912,0.54h1.956c1.328,0,1.992,0.464,1.992,1.392
		c0,0.312-0.078,0.618-0.234,0.918c-0.155,0.3-0.382,0.566-0.678,0.798c-0.656,0.512-1.479,0.768-2.472,0.768
		c-0.961,0-1.74-0.196-2.34-0.588c-0.561-0.376-0.84-0.836-0.84-1.38c0-0.36,0.109-0.646,0.329-0.858s0.511-0.346,0.87-0.402
		c-0.473-0.288-0.708-0.644-0.708-1.068c0-0.28,0.088-0.514,0.265-0.702C322.975,33.388,323.202,33.253,323.482,33.173z
		 M324.562,35.693c-0.752,0.032-1.129,0.316-1.129,0.852c0,0.272,0.158,0.49,0.475,0.654c0.316,0.164,0.689,0.246,1.122,0.246
		s0.771-0.036,1.015-0.108c0.243-0.072,0.449-0.168,0.617-0.288c0.36-0.24,0.54-0.528,0.54-0.864c0-0.144-0.05-0.262-0.149-0.354
		c-0.101-0.092-0.246-0.138-0.438-0.138H324.562z M326.398,31.656c0-0.324-0.09-0.588-0.27-0.792
		c-0.181-0.204-0.455-0.306-0.822-0.306c-0.368,0-0.648,0.102-0.84,0.306c-0.192,0.204-0.289,0.468-0.289,0.792
		c0,0.324,0.097,0.59,0.289,0.798c0.191,0.208,0.472,0.312,0.84,0.312c0.367,0,0.642-0.104,0.822-0.312
		C326.309,32.246,326.398,31.979,326.398,31.656z"/>
	<path d="M330.898,30.881c0.352-0.84,0.88-1.26,1.584-1.26c0.136,0,0.308,0.028,0.516,0.084l-0.023,1.416
		c-0.225-0.048-0.444-0.072-0.66-0.072c-0.944,0-1.416,0.652-1.416,1.956v2.556h-1.416v-5.844h1.416V30.881z"/>
	<path d="M338.512,31.313c0.1,0.336,0.15,0.644,0.15,0.924c0,0.28-0.016,0.532-0.049,0.756h-3.768
		c0.016,0.472,0.133,0.856,0.348,1.152c0.217,0.296,0.545,0.444,0.984,0.444c0.584,0,0.932-0.256,1.045-0.768h1.428
		c-0.097,0.584-0.365,1.044-0.805,1.38c-0.455,0.352-1.012,0.528-1.668,0.528c-0.768,0-1.412-0.28-1.932-0.84
		c-0.536-0.584-0.805-1.332-0.805-2.244c0-0.936,0.269-1.688,0.805-2.256c0.512-0.544,1.156-0.816,1.932-0.816
		c0.809,0,1.436,0.284,1.885,0.852C338.262,30.682,338.412,30.978,338.512,31.313z M336.189,30.702c-0.399,0-0.711,0.13-0.936,0.39
		c-0.225,0.26-0.355,0.594-0.396,1.002h2.484c0-0.632-0.199-1.056-0.6-1.272C336.59,30.742,336.406,30.702,336.189,30.702z"/>
	<path d="M344.392,31.313c0.101,0.336,0.15,0.644,0.15,0.924c0,0.28-0.017,0.532-0.048,0.756h-3.769
		c0.017,0.472,0.132,0.856,0.349,1.152c0.216,0.296,0.543,0.444,0.983,0.444c0.584,0,0.933-0.256,1.044-0.768h1.428
		c-0.096,0.584-0.363,1.044-0.804,1.38c-0.456,0.352-1.012,0.528-1.668,0.528c-0.768,0-1.412-0.28-1.932-0.84
		c-0.536-0.584-0.804-1.332-0.804-2.244c0-0.936,0.268-1.688,0.804-2.256c0.512-0.544,1.155-0.816,1.932-0.816
		c0.808,0,1.437,0.284,1.884,0.852C344.142,30.682,344.291,30.978,344.392,31.313z M342.07,30.702c-0.4,0-0.713,0.13-0.937,0.39
		c-0.224,0.26-0.356,0.594-0.396,1.002h2.483c0-0.632-0.2-1.056-0.601-1.272C342.47,30.742,342.285,30.702,342.07,30.702z"/>
	<path d="M347.146,30.737c0.384-0.776,1-1.164,1.849-1.164c0.72,0,1.262,0.236,1.625,0.708c0.364,0.472,0.547,1.096,0.547,1.872
		v3.408h-1.416v-3.408c0-0.432-0.104-0.758-0.312-0.978c-0.208-0.22-0.5-0.33-0.876-0.33s-0.698,0.168-0.966,0.504
		s-0.41,0.84-0.426,1.512v2.7h-1.416v-5.832h1.236L347.146,30.737z"/>
	<path d="M352.455,35.352c-0.156-0.14-0.234-0.328-0.234-0.564s0.092-0.438,0.276-0.606s0.437-0.252,0.757-0.252
		c0.319,0,0.579,0.124,0.779,0.372s0.301,0.552,0.301,0.912c0,0.584-0.265,1.116-0.793,1.596c-0.168,0.152-0.355,0.28-0.563,0.384
		l-1.056-0.528c0.264-0.136,0.498-0.288,0.701-0.456c0.204-0.168,0.338-0.364,0.402-0.588
		C352.801,35.582,352.611,35.492,352.455,35.352z"/>
	<path d="M313.559,47.573c-0.473-0.4-0.709-0.9-0.709-1.5c0-0.632,0.248-1.144,0.744-1.536c0.48-0.376,1.03-0.564,1.65-0.564
		c0.619,0,1.138,0.116,1.554,0.348c0.048-0.456,0.244-0.824,0.589-1.104c0.336-0.28,0.731-0.42,1.188-0.42l-0.072,1.356
		c-0.688,0-1.044,0.228-1.068,0.684c0.297,0.368,0.444,0.744,0.444,1.128c0,0.384-0.067,0.706-0.204,0.966
		c-0.136,0.26-0.32,0.478-0.552,0.654c-0.479,0.384-1.063,0.576-1.752,0.576c-0.392,0-0.748-0.06-1.068-0.18
		c-0.319,0.096-0.479,0.288-0.479,0.576c0,0.36,0.304,0.54,0.912,0.54h1.955c1.328,0,1.992,0.464,1.992,1.392
		c0,0.312-0.078,0.618-0.234,0.918c-0.155,0.3-0.381,0.566-0.678,0.798c-0.656,0.512-1.479,0.768-2.472,0.768
		c-0.96,0-1.739-0.196-2.34-0.588c-0.56-0.376-0.84-0.836-0.84-1.38c0-0.36,0.11-0.646,0.329-0.858
		c0.221-0.212,0.511-0.346,0.871-0.402c-0.473-0.288-0.709-0.644-0.709-1.068c0-0.28,0.088-0.514,0.265-0.702
		C313.05,47.788,313.277,47.653,313.559,47.573z M314.639,50.093c-0.753,0.032-1.129,0.316-1.129,0.852
		c0,0.272,0.158,0.49,0.475,0.654c0.315,0.164,0.689,0.246,1.121,0.246c0.433,0,0.771-0.036,1.015-0.108
		c0.243-0.072,0.45-0.168,0.618-0.288c0.359-0.24,0.539-0.528,0.539-0.864c0-0.144-0.049-0.262-0.149-0.354
		c-0.101-0.092-0.246-0.138-0.438-0.138H314.639z M316.475,46.056c0-0.324-0.091-0.588-0.271-0.792
		c-0.181-0.204-0.454-0.306-0.822-0.306s-0.647,0.102-0.84,0.306c-0.192,0.204-0.288,0.468-0.288,0.792
		c0,0.324,0.096,0.59,0.288,0.798s0.472,0.312,0.84,0.312s0.642-0.104,0.822-0.312C316.384,46.646,316.475,46.379,316.475,46.056z"
		/>
	<path d="M321.85,43.974c0.393,0,0.76,0.062,1.104,0.186c0.344,0.124,0.64,0.314,0.888,0.57c0.553,0.56,0.828,1.336,0.828,2.328
		c0,0.976-0.275,1.744-0.828,2.304c-0.496,0.512-1.16,0.768-1.992,0.768s-1.504-0.256-2.016-0.768
		c-0.553-0.552-0.828-1.32-0.828-2.304c0-1,0.275-1.776,0.828-2.328C320.338,44.226,321.01,43.974,321.85,43.974z M323.254,47.045
		c0-0.616-0.12-1.078-0.359-1.386c-0.24-0.308-0.574-0.462-1.002-0.462c-0.429,0-0.779,0.154-1.051,0.462
		c-0.271,0.308-0.408,0.77-0.408,1.386c0,0.616,0.122,1.078,0.366,1.386c0.244,0.308,0.578,0.462,1.002,0.462
		c0.425,0,0.772-0.154,1.044-0.462C323.117,48.124,323.254,47.662,323.254,47.045z"/>
	<path d="M331.713,49.817c-0.527,0.208-0.943,0.312-1.248,0.312c-0.303,0-0.569-0.036-0.797-0.108
		c-0.229-0.072-0.431-0.18-0.606-0.324c-0.368-0.328-0.552-0.78-0.552-1.356v-3.264h-0.816v-0.948h0.816v-1.536h1.416v1.536h1.584
		v0.948h-1.584v3.216c0,0.48,0.229,0.72,0.684,0.72c0.232,0,0.532-0.063,0.9-0.192L331.713,49.817z"/>
	<path d="M334.978,43.974c0.392,0,0.76,0.062,1.104,0.186c0.344,0.124,0.639,0.314,0.887,0.57c0.553,0.56,0.828,1.336,0.828,2.328
		c0,0.976-0.275,1.744-0.828,2.304c-0.496,0.512-1.16,0.768-1.991,0.768c-0.833,0-1.505-0.256-2.017-0.768
		c-0.552-0.552-0.828-1.32-0.828-2.304c0-1,0.276-1.776,0.828-2.328C333.465,44.226,334.137,43.974,334.978,43.974z M336.381,47.045
		c0-0.616-0.119-1.078-0.359-1.386c-0.24-0.308-0.574-0.462-1.002-0.462s-0.778,0.154-1.051,0.462
		c-0.271,0.308-0.407,0.77-0.407,1.386c0,0.616,0.122,1.078,0.366,1.386c0.244,0.308,0.578,0.462,1.002,0.462
		s0.771-0.154,1.043-0.462C336.245,48.124,336.381,47.662,336.381,47.045z"/>
	<path d="M346.455,44.813c0.492,0.56,0.738,1.296,0.738,2.208s-0.26,1.664-0.78,2.256c-0.504,0.568-1.132,0.852-1.884,0.852
		c-0.36,0-0.69-0.096-0.99-0.288c-0.301-0.192-0.538-0.488-0.714-0.888l-0.349,1.008h-0.924v-8.232h1.416v3.132
		c0.368-0.592,0.918-0.888,1.65-0.888S345.963,44.253,346.455,44.813z M342.969,46.686v0.768c0.016,0.408,0.164,0.744,0.444,1.008
		c0.265,0.256,0.586,0.384,0.966,0.384s0.706-0.166,0.979-0.498c0.271-0.332,0.408-0.77,0.408-1.314
		c0-0.544-0.135-0.978-0.402-1.302c-0.269-0.324-0.603-0.486-1.002-0.486c-0.4,0-0.732,0.132-0.996,0.396
		C343.102,45.905,342.969,46.253,342.969,46.686z"/>
	<path d="M348.441,41.729h1.416v8.232h-1.416V41.729z"/>
	<path d="M355.485,48.905c-0.368,0.776-0.96,1.164-1.776,1.164c-1.031,0-1.712-0.404-2.04-1.212c-0.12-0.28-0.18-0.62-0.18-1.02
		v-3.72h1.416v3.576c0,0.384,0.092,0.67,0.276,0.858c0.184,0.188,0.409,0.282,0.678,0.282c0.268,0,0.494-0.038,0.678-0.114
		c0.184-0.076,0.344-0.19,0.48-0.342c0.295-0.344,0.451-0.804,0.468-1.38v-2.88h1.416v5.844h-1.416V48.905z"/>
	<path d="M363.171,45.713c0.101,0.336,0.15,0.644,0.15,0.924c0,0.28-0.017,0.532-0.048,0.756h-3.769
		c0.017,0.472,0.132,0.856,0.349,1.152c0.216,0.296,0.543,0.444,0.983,0.444c0.584,0,0.933-0.256,1.044-0.768h1.428
		c-0.096,0.584-0.363,1.044-0.804,1.38c-0.456,0.352-1.012,0.528-1.668,0.528c-0.768,0-1.412-0.28-1.932-0.84
		c-0.536-0.584-0.804-1.332-0.804-2.244c0-0.936,0.268-1.688,0.804-2.256c0.512-0.544,1.155-0.816,1.932-0.816
		c0.808,0,1.437,0.284,1.884,0.852C362.921,45.082,363.07,45.377,363.171,45.713z M360.85,45.102c-0.4,0-0.713,0.13-0.937,0.39
		c-0.224,0.26-0.356,0.594-0.396,1.002h2.483c0-0.632-0.2-1.056-0.601-1.272C361.249,45.142,361.064,45.102,360.85,45.102z"/>
</g>
<g>
	<path d="M399.349,27.846c0-0.256,0.076-0.458,0.228-0.606c0.152-0.148,0.369-0.222,0.648-0.222c0.271,0,0.486,0.074,0.643,0.222
		s0.233,0.35,0.233,0.606c0,0.256-0.077,0.458-0.233,0.606s-0.371,0.222-0.643,0.222c-0.279,0-0.496-0.074-0.648-0.222
		C399.425,28.304,399.349,28.102,399.349,27.846z M399.517,29.717h1.416v5.844h-1.416V29.717z"/>
	<path d="M402.217,29.729h0.864v-0.684c0-0.6,0.176-1.06,0.528-1.38c0.319-0.288,0.735-0.432,1.248-0.432
		c0.327,0,0.731,0.048,1.211,0.144l-0.275,1.092c-0.225-0.08-0.426-0.12-0.605-0.12c-0.181,0-0.339,0.05-0.475,0.15
		c-0.137,0.1-0.204,0.286-0.204,0.558v0.672h1.067v0.948h-1.067v4.884h-1.428v-4.884h-0.864V29.729z"/>
	<path d="M414.223,30.414c0.492,0.56,0.738,1.296,0.738,2.208s-0.26,1.664-0.779,2.256c-0.504,0.568-1.133,0.852-1.885,0.852
		c-0.359,0-0.689-0.096-0.99-0.288c-0.3-0.192-0.537-0.488-0.713-0.888l-0.349,1.008h-0.924V27.33h1.416v3.132
		c0.368-0.592,0.918-0.888,1.649-0.888C413.119,29.574,413.73,29.854,414.223,30.414z M410.737,32.286v0.768
		c0.016,0.408,0.163,0.744,0.444,1.008c0.264,0.256,0.586,0.384,0.965,0.384c0.381,0,0.707-0.166,0.979-0.498
		s0.408-0.77,0.408-1.314c0-0.544-0.135-0.978-0.402-1.302s-0.602-0.486-1.002-0.486s-0.732,0.132-0.996,0.396
		C410.869,31.505,410.737,31.854,410.737,32.286z"/>
	<path d="M416.209,27.33h1.416v8.232h-1.416V27.33z"/>
	<path d="M423.254,34.505c-0.369,0.776-0.961,1.164-1.777,1.164c-1.031,0-1.711-0.404-2.039-1.212c-0.12-0.28-0.18-0.62-0.18-1.02
		v-3.72h1.416v3.576c0,0.384,0.092,0.67,0.275,0.858c0.184,0.188,0.41,0.282,0.678,0.282s0.494-0.038,0.678-0.114
		c0.185-0.076,0.344-0.19,0.48-0.342c0.296-0.344,0.452-0.804,0.469-1.38v-2.88h1.416v5.844h-1.416V34.505z"/>
	<path d="M430.939,31.313c0.1,0.336,0.15,0.644,0.15,0.924c0,0.28-0.017,0.532-0.049,0.756h-3.768
		c0.016,0.472,0.132,0.856,0.348,1.152c0.217,0.296,0.544,0.444,0.984,0.444c0.584,0,0.932-0.256,1.044-0.768h1.428
		c-0.097,0.584-0.364,1.044-0.804,1.38c-0.456,0.352-1.012,0.528-1.668,0.528c-0.768,0-1.412-0.28-1.932-0.84
		c-0.537-0.584-0.805-1.332-0.805-2.244c0-0.936,0.268-1.688,0.805-2.256c0.512-0.544,1.155-0.816,1.932-0.816
		c0.808,0,1.436,0.284,1.884,0.852C430.689,30.682,430.839,30.978,430.939,31.313z M428.617,30.702c-0.4,0-0.712,0.13-0.936,0.39
		c-0.225,0.26-0.356,0.594-0.396,1.002h2.484c0-0.632-0.2-1.056-0.601-1.272C429.018,30.742,428.833,30.702,428.617,30.702z"/>
	<path d="M432.007,35.352c-0.155-0.14-0.233-0.328-0.233-0.564s0.092-0.438,0.275-0.606s0.436-0.252,0.756-0.252
		s0.58,0.124,0.78,0.372s0.3,0.552,0.3,0.912c0,0.584-0.264,1.116-0.791,1.596c-0.168,0.152-0.357,0.28-0.564,0.384l-1.057-0.528
		c0.264-0.136,0.498-0.288,0.703-0.456c0.203-0.168,0.337-0.364,0.401-0.588C432.354,35.582,432.163,35.492,432.007,35.352z"/>
	<path d="M399.9,47.573c-0.472-0.4-0.707-0.9-0.707-1.5c0-0.632,0.247-1.144,0.743-1.536c0.48-0.376,1.03-0.564,1.65-0.564
		s1.138,0.116,1.554,0.348c0.049-0.456,0.244-0.824,0.588-1.104c0.336-0.28,0.732-0.42,1.188-0.42l-0.072,1.356
		c-0.688,0-1.044,0.228-1.067,0.684c0.295,0.368,0.443,0.744,0.443,1.128c0,0.384-0.068,0.706-0.204,0.966
		c-0.136,0.26-0.319,0.478-0.552,0.654c-0.48,0.384-1.064,0.576-1.752,0.576c-0.393,0-0.748-0.06-1.068-0.18
		c-0.32,0.096-0.48,0.288-0.48,0.576c0,0.36,0.305,0.54,0.912,0.54h1.957c1.328,0,1.992,0.464,1.992,1.392
		c0,0.312-0.078,0.618-0.234,0.918c-0.156,0.3-0.383,0.566-0.678,0.798c-0.656,0.512-1.48,0.768-2.473,0.768
		c-0.96,0-1.74-0.196-2.34-0.588c-0.561-0.376-0.84-0.836-0.84-1.38c0-0.36,0.109-0.646,0.33-0.858
		c0.22-0.212,0.51-0.346,0.869-0.402c-0.472-0.288-0.707-0.644-0.707-1.068c0-0.28,0.088-0.514,0.264-0.702
		S399.621,47.653,399.9,47.573z M400.98,50.093c-0.752,0.032-1.128,0.316-1.128,0.852c0,0.272,0.158,0.49,0.474,0.654
		c0.316,0.164,0.69,0.246,1.123,0.246c0.432,0,0.77-0.036,1.014-0.108c0.244-0.072,0.449-0.168,0.617-0.288
		c0.361-0.24,0.541-0.528,0.541-0.864c0-0.144-0.051-0.262-0.15-0.354c-0.1-0.092-0.246-0.138-0.438-0.138H400.98z M402.816,46.056
		c0-0.324-0.09-0.588-0.27-0.792c-0.18-0.204-0.454-0.306-0.822-0.306c-0.367,0-0.648,0.102-0.84,0.306
		c-0.191,0.204-0.288,0.468-0.288,0.792c0,0.324,0.097,0.59,0.288,0.798s0.473,0.312,0.84,0.312c0.368,0,0.643-0.104,0.822-0.312
		S402.816,46.379,402.816,46.056z"/>
	<path d="M408.193,43.974c0.391,0,0.76,0.062,1.104,0.186s0.64,0.314,0.888,0.57c0.552,0.56,0.828,1.336,0.828,2.328
		c0,0.976-0.276,1.744-0.828,2.304c-0.496,0.512-1.16,0.768-1.991,0.768c-0.833,0-1.505-0.256-2.017-0.768
		c-0.552-0.552-0.828-1.32-0.828-2.304c0-1,0.276-1.776,0.828-2.328C406.681,44.226,407.353,43.974,408.193,43.974z M409.597,47.045
		c0-0.616-0.12-1.078-0.36-1.386c-0.24-0.308-0.574-0.462-1.002-0.462s-0.777,0.154-1.05,0.462c-0.272,0.308-0.407,0.77-0.407,1.386
		c0,0.616,0.121,1.078,0.365,1.386c0.244,0.308,0.578,0.462,1.002,0.462s0.771-0.154,1.044-0.462
		C409.461,48.124,409.597,47.662,409.597,47.045z"/>
	<path d="M418.057,49.817c-0.528,0.208-0.944,0.312-1.248,0.312c-0.305,0-0.57-0.036-0.799-0.108
		c-0.228-0.072-0.43-0.18-0.605-0.324c-0.368-0.328-0.552-0.78-0.552-1.356v-3.264h-0.816v-0.948h0.816v-1.536h1.416v1.536h1.584
		v0.948h-1.584v3.216c0,0.48,0.228,0.72,0.684,0.72c0.231,0,0.532-0.063,0.9-0.192L418.057,49.817z"/>
	<path d="M421.32,43.974c0.392,0,0.76,0.062,1.104,0.186s0.641,0.314,0.889,0.57c0.552,0.56,0.828,1.336,0.828,2.328
		c0,0.976-0.276,1.744-0.828,2.304c-0.496,0.512-1.16,0.768-1.992,0.768s-1.504-0.256-2.016-0.768
		c-0.553-0.552-0.828-1.32-0.828-2.304c0-1,0.275-1.776,0.828-2.328C419.809,44.226,420.48,43.974,421.32,43.974z M422.725,47.045
		c0-0.616-0.121-1.078-0.36-1.386c-0.24-0.308-0.574-0.462-1.002-0.462c-0.429,0-0.778,0.154-1.05,0.462
		c-0.272,0.308-0.408,0.77-0.408,1.386c0,0.616,0.121,1.078,0.365,1.386c0.244,0.308,0.578,0.462,1.002,0.462
		c0.425,0,0.772-0.154,1.045-0.462C422.588,48.124,422.725,47.662,422.725,47.045z"/>
	<path d="M428.412,44.129l1.176,4.164l1.115-3.84h1.285l1.115,3.852l1.188-4.176h1.416l-1.921,5.832h-1.391l-1.08-3.492
		l-1.057,3.492h-1.404l-1.932-5.832H428.412z"/>
	<path d="M437.928,45.078c0.4-0.736,0.984-1.104,1.752-1.104s1.334,0.236,1.697,0.708c0.364,0.472,0.547,1.096,0.547,1.872v3.408
		h-1.416v-3.408c0-0.432-0.104-0.758-0.312-0.978c-0.208-0.22-0.5-0.33-0.876-0.33s-0.698,0.168-0.966,0.504s-0.41,0.84-0.426,1.512
		v2.7h-1.416v-8.232h1.416V45.078z"/>
	<path d="M443.459,42.246c0-0.256,0.076-0.458,0.229-0.606c0.151-0.148,0.367-0.222,0.647-0.222c0.272,0,0.486,0.074,0.642,0.222
		c0.156,0.148,0.234,0.35,0.234,0.606c0,0.256-0.078,0.458-0.234,0.606c-0.155,0.148-0.369,0.222-0.642,0.222
		c-0.28,0-0.496-0.074-0.647-0.222C443.535,42.704,443.459,42.501,443.459,42.246z M443.627,44.117h1.416v5.844h-1.416V44.117z"/>
	<path d="M450.251,49.817c-0.528,0.208-0.944,0.312-1.248,0.312s-0.569-0.036-0.798-0.108c-0.229-0.072-0.43-0.18-0.605-0.324
		c-0.369-0.328-0.553-0.78-0.553-1.356v-3.264h-0.816v-0.948h0.816v-1.536h1.416v1.536h1.584v0.948h-1.584v3.216
		c0,0.48,0.229,0.72,0.684,0.72c0.232,0,0.533-0.063,0.9-0.192L450.251,49.817z"/>
	<path d="M455.74,45.713c0.101,0.336,0.15,0.644,0.15,0.924c0,0.28-0.016,0.532-0.048,0.756h-3.769
		c0.017,0.472,0.133,0.856,0.349,1.152s0.544,0.444,0.983,0.444c0.584,0,0.933-0.256,1.045-0.768h1.428
		c-0.096,0.584-0.364,1.044-0.805,1.38c-0.455,0.352-1.012,0.528-1.668,0.528c-0.768,0-1.412-0.28-1.932-0.84
		c-0.535-0.584-0.804-1.332-0.804-2.244c0-0.936,0.269-1.688,0.804-2.256c0.512-0.544,1.156-0.816,1.932-0.816
		c0.809,0,1.437,0.284,1.885,0.852C455.49,45.082,455.641,45.377,455.74,45.713z M453.419,45.102c-0.399,0-0.712,0.13-0.937,0.39
		c-0.224,0.26-0.355,0.594-0.396,1.002h2.483c0-0.632-0.199-1.056-0.6-1.272C453.818,45.142,453.635,45.102,453.419,45.102z"/>
</g>
<polygon fill="#FFFFFF" stroke="#000000" stroke-width="2" stroke-miterlimit="10" points="135.129,90.157 124.587,80.796 
	124.587,85.292 116.412,85.292 116.412,95.022 124.587,95.022 124.587,99.52 "/>
<polygon fill="#FFFFFF" stroke="#000000" stroke-width="2" stroke-miterlimit="10" points="221.472,90.157 210.93,80.796 
	210.93,85.292 202.755,85.292 202.755,95.022 210.93,95.022 210.93,99.52 "/>
<polygon fill="#FFFFFF" stroke="#000000" stroke-width="2" stroke-miterlimit="10" points="308.129,90.157 297.588,80.796 
	297.588,85.292 289.412,85.292 289.412,95.022 297.588,95.022 297.588,99.52 "/>
<polygon fill="#FFFFFF" stroke="#000000" stroke-width="2" stroke-miterlimit="10" points="394.129,90.157 383.588,80.796 
	383.588,85.292 375.412,85.292 375.412,95.022 383.588,95.022 383.588,99.52 "/>
<polygon fill="#FFFFFF" stroke="#000000" stroke-width="2" stroke-miterlimit="10" points="470.588,162 470.588,95.022 
	462.412,95.022 462.412,85.292 480.588,85.292 480.588,171.25 19.412,171.25 19.412,85.292 37.588,85.292 37.588,80.796 
	48.129,90.157 37.588,99.52 37.588,95.022 28.908,95 28.908,162 470.572,162 "/>
</svg>
